<svg width="693" height="201" viewBox="0 0 693 201" fill="none" xmlns="http://www.w3.org/2000/svg">
<g filter="url(#filter0_d)">
<rect x="24" y="24" width="645" height="153" rx="50" fill="white"/>
</g>
<path d="M239.776 65.664V81.344C239.776 83.52 239.146 85.216 237.888 86.432C236.629 87.6267 234.944 88.224 232.832 88.224C230.698 88.224 228.97 87.6053 227.648 86.368C226.346 85.1307 225.696 83.4027 225.696 81.184H230.176C230.197 82.144 230.421 82.8907 230.848 83.424C231.296 83.9573 231.936 84.224 232.768 84.224C233.578 84.224 234.197 83.968 234.624 83.456C235.05 82.944 235.264 82.24 235.264 81.344V65.664H239.776ZM257.674 88.288C255.967 88.288 254.431 87.9147 253.066 87.168C251.7 86.4 250.623 85.3227 249.834 83.936C249.066 82.5493 248.682 80.9493 248.682 79.136C248.682 77.3227 249.076 75.7227 249.866 74.336C250.676 72.9493 251.775 71.8827 253.162 71.136C254.548 70.368 256.095 69.984 257.802 69.984C259.508 69.984 261.055 70.368 262.442 71.136C263.828 71.8827 264.916 72.9493 265.706 74.336C266.516 75.7227 266.922 77.3227 266.922 79.136C266.922 80.9493 266.506 82.5493 265.674 83.936C264.863 85.3227 263.754 86.4 262.346 87.168C260.959 87.9147 259.402 88.288 257.674 88.288ZM257.674 84.384C258.484 84.384 259.242 84.192 259.946 83.808C260.671 83.4027 261.247 82.8053 261.674 82.016C262.1 81.2267 262.314 80.2667 262.314 79.136C262.314 77.4507 261.866 76.16 260.97 75.264C260.095 74.3467 259.018 73.888 257.738 73.888C256.458 73.888 255.38 74.3467 254.506 75.264C253.652 76.16 253.226 77.4507 253.226 79.136C253.226 80.8213 253.642 82.1227 254.474 83.04C255.327 83.936 256.394 84.384 257.674 84.384ZM277.28 68.16C276.491 68.16 275.829 67.9147 275.296 67.424C274.784 66.912 274.528 66.2827 274.528 65.536C274.528 64.7893 274.784 64.1707 275.296 63.68C275.829 63.168 276.491 62.912 277.28 62.912C278.069 62.912 278.72 63.168 279.232 63.68C279.765 64.1707 280.032 64.7893 280.032 65.536C280.032 66.2827 279.765 66.912 279.232 67.424C278.72 67.9147 278.069 68.16 277.28 68.16ZM279.488 70.272V88H275.008V70.272H279.488ZM298.538 70.016C300.65 70.016 302.357 70.688 303.658 72.032C304.96 73.3547 305.61 75.2107 305.61 77.6V88H301.13V78.208C301.13 76.8 300.778 75.7227 300.074 74.976C299.37 74.208 298.41 73.824 297.194 73.824C295.957 73.824 294.976 74.208 294.25 74.976C293.546 75.7227 293.194 76.8 293.194 78.208V88H288.714V70.272H293.194V72.48C293.792 71.712 294.549 71.1147 295.466 70.688C296.405 70.24 297.429 70.016 298.538 70.016ZM334.967 88.288C333.261 88.288 331.725 87.9147 330.359 87.168C328.994 86.4 327.917 85.3227 327.127 83.936C326.359 82.5493 325.975 80.9493 325.975 79.136C325.975 77.3227 326.37 75.7227 327.159 74.336C327.97 72.9493 329.069 71.8827 330.455 71.136C331.842 70.368 333.389 69.984 335.095 69.984C336.802 69.984 338.349 70.368 339.735 71.136C341.122 71.8827 342.21 72.9493 342.999 74.336C343.81 75.7227 344.215 77.3227 344.215 79.136C344.215 80.9493 343.799 82.5493 342.967 83.936C342.157 85.3227 341.047 86.4 339.639 87.168C338.253 87.9147 336.695 88.288 334.967 88.288ZM334.967 84.384C335.778 84.384 336.535 84.192 337.239 83.808C337.965 83.4027 338.541 82.8053 338.967 82.016C339.394 81.2267 339.607 80.2667 339.607 79.136C339.607 77.4507 339.159 76.16 338.263 75.264C337.389 74.3467 336.311 73.888 335.031 73.888C333.751 73.888 332.674 74.3467 331.799 75.264C330.946 76.16 330.519 77.4507 330.519 79.136C330.519 80.8213 330.935 82.1227 331.767 83.04C332.621 83.936 333.687 84.384 334.967 84.384ZM369.038 70.272V88H364.526V85.76C363.95 86.528 363.192 87.136 362.254 87.584C361.336 88.0107 360.334 88.224 359.246 88.224C357.859 88.224 356.632 87.936 355.566 87.36C354.499 86.7627 353.656 85.8987 353.038 84.768C352.44 83.616 352.142 82.2507 352.142 80.672V70.272H356.622V80.032C356.622 81.44 356.974 82.528 357.678 83.296C358.382 84.0427 359.342 84.416 360.558 84.416C361.795 84.416 362.766 84.0427 363.47 83.296C364.174 82.528 364.526 81.44 364.526 80.032V70.272H369.038ZM382.738 73.024C383.314 72.0853 384.061 71.3493 384.978 70.816C385.917 70.2827 386.983 70.016 388.178 70.016V74.72H386.994C385.586 74.72 384.519 75.0507 383.794 75.712C383.09 76.3733 382.738 77.5253 382.738 79.168V88H378.258V70.272H382.738V73.024ZM422.212 65.664V69.28H412.9V75.008H420.036V78.56H412.9V88H408.42V65.664H422.212ZM429.037 79.072C429.037 77.28 429.389 75.6907 430.093 74.304C430.819 72.9173 431.789 71.8507 433.005 71.104C434.243 70.3573 435.619 69.984 437.133 69.984C438.456 69.984 439.608 70.2507 440.589 70.784C441.592 71.3173 442.392 71.9893 442.989 72.8V70.272H447.501V88H442.989V85.408C442.413 86.24 441.613 86.9333 440.589 87.488C439.587 88.0213 438.424 88.288 437.101 88.288C435.608 88.288 434.243 87.904 433.005 87.136C431.789 86.368 430.819 85.2907 430.093 83.904C429.389 82.496 429.037 80.8853 429.037 79.072ZM442.989 79.136C442.989 78.048 442.776 77.12 442.349 76.352C441.923 75.5627 441.347 74.9653 440.621 74.56C439.896 74.1333 439.117 73.92 438.285 73.92C437.453 73.92 436.685 74.1227 435.981 74.528C435.277 74.9333 434.701 75.5307 434.253 76.32C433.827 77.088 433.613 78.0053 433.613 79.072C433.613 80.1387 433.827 81.0773 434.253 81.888C434.701 82.6773 435.277 83.2853 435.981 83.712C436.707 84.1387 437.475 84.352 438.285 84.352C439.117 84.352 439.896 84.1493 440.621 83.744C441.347 83.3173 441.923 82.72 442.349 81.952C442.776 81.1627 442.989 80.224 442.989 79.136ZM455.525 79.136C455.525 77.3013 455.898 75.7013 456.645 74.336C457.391 72.9493 458.426 71.8827 459.749 71.136C461.071 70.368 462.586 69.984 464.293 69.984C466.49 69.984 468.303 70.5387 469.733 71.648C471.183 72.736 472.154 74.272 472.645 76.256H467.813C467.557 75.488 467.119 74.8907 466.501 74.464C465.903 74.016 465.157 73.792 464.261 73.792C462.981 73.792 461.967 74.2613 461.221 75.2C460.474 76.1173 460.101 77.4293 460.101 79.136C460.101 80.8213 460.474 82.1333 461.221 83.072C461.967 83.9893 462.981 84.448 464.261 84.448C466.074 84.448 467.258 83.6373 467.813 82.016H472.645C472.154 83.936 471.183 85.4613 469.733 86.592C468.282 87.7227 466.469 88.288 464.293 88.288C462.586 88.288 461.071 87.9147 459.749 87.168C458.426 86.4 457.391 85.3333 456.645 83.968C455.898 82.5813 455.525 80.9707 455.525 79.136ZM497.207 78.752C497.207 79.392 497.164 79.968 497.079 80.48H484.119C484.225 81.76 484.673 82.7627 485.463 83.488C486.252 84.2133 487.223 84.576 488.375 84.576C490.039 84.576 491.223 83.8613 491.927 82.432H496.759C496.247 84.1387 495.265 85.5467 493.815 86.656C492.364 87.744 490.583 88.288 488.471 88.288C486.764 88.288 485.228 87.9147 483.863 87.168C482.519 86.4 481.463 85.3227 480.695 83.936C479.948 82.5493 479.575 80.9493 479.575 79.136C479.575 77.3013 479.948 75.6907 480.695 74.304C481.441 72.9173 482.487 71.8507 483.831 71.104C485.175 70.3573 486.721 69.984 488.471 69.984C490.156 69.984 491.66 70.3467 492.983 71.072C494.327 71.7973 495.361 72.832 496.087 74.176C496.833 75.4987 497.207 77.024 497.207 78.752ZM492.567 77.472C492.545 76.32 492.129 75.4027 491.319 74.72C490.508 74.016 489.516 73.664 488.343 73.664C487.233 73.664 486.295 74.0053 485.527 74.688C484.78 75.3493 484.321 76.2773 484.151 77.472H492.567ZM509.757 72.864C510.333 72.0107 511.122 71.3173 512.125 70.784C513.149 70.2507 514.311 69.984 515.613 69.984C517.127 69.984 518.493 70.3573 519.709 71.104C520.946 71.8507 521.917 72.9173 522.621 74.304C523.346 75.6693 523.709 77.2587 523.709 79.072C523.709 80.8853 523.346 82.496 522.621 83.904C521.917 85.2907 520.946 86.368 519.709 87.136C518.493 87.904 517.127 88.288 515.613 88.288C514.29 88.288 513.127 88.032 512.125 87.52C511.143 86.9867 510.354 86.304 509.757 85.472V88H505.277V64.32H509.757V72.864ZM519.133 79.072C519.133 78.0053 518.909 77.088 518.461 76.32C518.034 75.5307 517.458 74.9333 516.733 74.528C516.029 74.1227 515.261 73.92 514.429 73.92C513.618 73.92 512.85 74.1333 512.125 74.56C511.421 74.9653 510.845 75.5627 510.397 76.352C509.97 77.1413 509.757 78.0693 509.757 79.136C509.757 80.2027 509.97 81.1307 510.397 81.92C510.845 82.7093 511.421 83.3173 512.125 83.744C512.85 84.1493 513.618 84.352 514.429 84.352C515.261 84.352 516.029 84.1387 516.733 83.712C517.458 83.2853 518.034 82.6773 518.461 81.888C518.909 81.0987 519.133 80.16 519.133 79.072ZM539.636 88.288C537.93 88.288 536.394 87.9147 535.028 87.168C533.663 86.4 532.586 85.3227 531.796 83.936C531.028 82.5493 530.644 80.9493 530.644 79.136C530.644 77.3227 531.039 75.7227 531.828 74.336C532.639 72.9493 533.738 71.8827 535.124 71.136C536.511 70.368 538.058 69.984 539.764 69.984C541.471 69.984 543.018 70.368 544.404 71.136C545.791 71.8827 546.879 72.9493 547.668 74.336C548.479 75.7227 548.884 77.3227 548.884 79.136C548.884 80.9493 548.468 82.5493 547.636 83.936C546.826 85.3227 545.716 86.4 544.308 87.168C542.922 87.9147 541.364 88.288 539.636 88.288ZM539.636 84.384C540.447 84.384 541.204 84.192 541.908 83.808C542.634 83.4027 543.21 82.8053 543.636 82.016C544.063 81.2267 544.276 80.2667 544.276 79.136C544.276 77.4507 543.828 76.16 542.932 75.264C542.058 74.3467 540.98 73.888 539.7 73.888C538.42 73.888 537.343 74.3467 536.468 75.264C535.615 76.16 535.188 77.4507 535.188 79.136C535.188 80.8213 535.604 82.1227 536.436 83.04C537.29 83.936 538.356 84.384 539.636 84.384ZM564.843 88.288C563.136 88.288 561.6 87.9147 560.235 87.168C558.869 86.4 557.792 85.3227 557.003 83.936C556.235 82.5493 555.851 80.9493 555.851 79.136C555.851 77.3227 556.245 75.7227 557.035 74.336C557.845 72.9493 558.944 71.8827 560.331 71.136C561.717 70.368 563.264 69.984 564.971 69.984C566.677 69.984 568.224 70.368 569.611 71.136C570.997 71.8827 572.085 72.9493 572.875 74.336C573.685 75.7227 574.091 77.3227 574.091 79.136C574.091 80.9493 573.675 82.5493 572.843 83.936C572.032 85.3227 570.923 86.4 569.515 87.168C568.128 87.9147 566.571 88.288 564.843 88.288ZM564.843 84.384C565.653 84.384 566.411 84.192 567.115 83.808C567.84 83.4027 568.416 82.8053 568.843 82.016C569.269 81.2267 569.483 80.2667 569.483 79.136C569.483 77.4507 569.035 76.16 568.139 75.264C567.264 74.3467 566.187 73.888 564.907 73.888C563.627 73.888 562.549 74.3467 561.675 75.264C560.821 76.16 560.395 77.4507 560.395 79.136C560.395 80.8213 560.811 82.1227 561.643 83.04C562.496 83.936 563.563 84.384 564.843 84.384ZM592.673 88L586.657 80.448V88H582.177V64.32H586.657V77.792L592.609 70.272H598.433L590.625 79.168L598.497 88H592.673ZM298.404 124.8C298.404 122.603 298.895 120.64 299.876 118.912C300.879 117.163 302.234 115.808 303.94 114.848C305.668 113.867 307.599 113.376 309.732 113.376C312.228 113.376 314.415 114.016 316.292 115.296C318.17 116.576 319.482 118.347 320.228 120.608H315.076C314.564 119.541 313.839 118.741 312.9 118.208C311.983 117.675 310.916 117.408 309.7 117.408C308.399 117.408 307.236 117.717 306.212 118.336C305.21 118.933 304.42 119.787 303.844 120.896C303.29 122.005 303.012 123.307 303.012 124.8C303.012 126.272 303.29 127.573 303.844 128.704C304.42 129.813 305.21 130.677 306.212 131.296C307.236 131.893 308.399 132.192 309.7 132.192C310.916 132.192 311.983 131.925 312.9 131.392C313.839 130.837 314.564 130.027 315.076 128.96H320.228C319.482 131.243 318.17 133.024 316.292 134.304C314.436 135.563 312.25 136.192 309.732 136.192C307.599 136.192 305.668 135.712 303.94 134.752C302.234 133.771 300.879 132.416 299.876 130.688C298.895 128.96 298.404 126.997 298.404 124.8ZM336.727 136.288C335.02 136.288 333.484 135.915 332.119 135.168C330.754 134.4 329.676 133.323 328.887 131.936C328.119 130.549 327.735 128.949 327.735 127.136C327.735 125.323 328.13 123.723 328.919 122.336C329.73 120.949 330.828 119.883 332.215 119.136C333.602 118.368 335.148 117.984 336.855 117.984C338.562 117.984 340.108 118.368 341.495 119.136C342.882 119.883 343.97 120.949 344.759 122.336C345.57 123.723 345.975 125.323 345.975 127.136C345.975 128.949 345.559 130.549 344.727 131.936C343.916 133.323 342.807 134.4 341.399 135.168C340.012 135.915 338.455 136.288 336.727 136.288ZM336.727 132.384C337.538 132.384 338.295 132.192 338.999 131.808C339.724 131.403 340.3 130.805 340.727 130.016C341.154 129.227 341.367 128.267 341.367 127.136C341.367 125.451 340.919 124.16 340.023 123.264C339.148 122.347 338.071 121.888 336.791 121.888C335.511 121.888 334.434 122.347 333.559 123.264C332.706 124.16 332.279 125.451 332.279 127.136C332.279 128.821 332.695 130.123 333.527 131.04C334.38 131.936 335.447 132.384 336.727 132.384ZM376.077 118.016C378.253 118.016 380.002 118.688 381.325 120.032C382.669 121.355 383.341 123.211 383.341 125.6V136H378.861V126.208C378.861 124.821 378.509 123.765 377.805 123.04C377.101 122.293 376.141 121.92 374.925 121.92C373.709 121.92 372.738 122.293 372.013 123.04C371.309 123.765 370.957 124.821 370.957 126.208V136H366.477V126.208C366.477 124.821 366.125 123.765 365.421 123.04C364.717 122.293 363.757 121.92 362.541 121.92C361.304 121.92 360.322 122.293 359.597 123.04C358.893 123.765 358.541 124.821 358.541 126.208V136H354.061V118.272H358.541V120.416C359.117 119.669 359.853 119.083 360.749 118.656C361.666 118.229 362.669 118.016 363.757 118.016C365.144 118.016 366.381 118.315 367.469 118.912C368.557 119.488 369.4 120.32 369.997 121.408C370.573 120.384 371.405 119.563 372.493 118.944C373.602 118.325 374.797 118.016 376.077 118.016ZM414.408 118.016C416.584 118.016 418.334 118.688 419.656 120.032C421 121.355 421.672 123.211 421.672 125.6V136H417.192V126.208C417.192 124.821 416.84 123.765 416.136 123.04C415.432 122.293 414.472 121.92 413.256 121.92C412.04 121.92 411.07 122.293 410.344 123.04C409.64 123.765 409.288 124.821 409.288 126.208V136H404.808V126.208C404.808 124.821 404.456 123.765 403.752 123.04C403.048 122.293 402.088 121.92 400.872 121.92C399.635 121.92 398.654 122.293 397.928 123.04C397.224 123.765 396.872 124.821 396.872 126.208V136H392.392V118.272H396.872V120.416C397.448 119.669 398.184 119.083 399.08 118.656C399.998 118.229 401 118.016 402.088 118.016C403.475 118.016 404.712 118.315 405.8 118.912C406.888 119.488 407.731 120.32 408.328 121.408C408.904 120.384 409.736 119.563 410.824 118.944C411.934 118.325 413.128 118.016 414.408 118.016ZM447.46 118.272V136H442.948V133.76C442.372 134.528 441.614 135.136 440.676 135.584C439.758 136.011 438.756 136.224 437.668 136.224C436.281 136.224 435.054 135.936 433.988 135.36C432.921 134.763 432.078 133.899 431.46 132.768C430.862 131.616 430.564 130.251 430.564 128.672V118.272H435.044V128.032C435.044 129.44 435.396 130.528 436.1 131.296C436.804 132.043 437.764 132.416 438.98 132.416C440.217 132.416 441.188 132.043 441.892 131.296C442.596 130.528 442.948 129.44 442.948 128.032V118.272H447.46ZM466.504 118.016C468.616 118.016 470.323 118.688 471.624 120.032C472.925 121.355 473.576 123.211 473.576 125.6V136H469.096V126.208C469.096 124.8 468.744 123.723 468.04 122.976C467.336 122.208 466.376 121.824 465.16 121.824C463.923 121.824 462.941 122.208 462.216 122.976C461.512 123.723 461.16 124.8 461.16 126.208V136H456.68V118.272H461.16V120.48C461.757 119.712 462.515 119.115 463.432 118.688C464.371 118.24 465.395 118.016 466.504 118.016ZM484.908 116.16C484.119 116.16 483.457 115.915 482.924 115.424C482.412 114.912 482.156 114.283 482.156 113.536C482.156 112.789 482.412 112.171 482.924 111.68C483.457 111.168 484.119 110.912 484.908 110.912C485.697 110.912 486.348 111.168 486.86 111.68C487.393 112.171 487.66 112.789 487.66 113.536C487.66 114.283 487.393 114.912 486.86 115.424C486.348 115.915 485.697 116.16 484.908 116.16ZM487.116 118.272V136H482.636V118.272H487.116ZM501.558 121.952V130.528C501.558 131.125 501.697 131.563 501.974 131.84C502.273 132.096 502.764 132.224 503.446 132.224H505.526V136H502.71C498.934 136 497.046 134.165 497.046 130.496V121.952H494.934V118.272H497.046V113.888H501.558V118.272H505.526V121.952H501.558ZM530.509 118.272L519.533 144.384H514.765L518.605 135.552L511.501 118.272H516.525L521.101 130.656L525.741 118.272H530.509Z" fill="#3B5998"/>
<path d="M82.2594 49C72.1445 49 64 57.1445 64 67.2594V130.741C64 140.855 72.1445 149 82.2594 149H116.666V109.906H106.328V95.8312H116.666V83.8062C116.666 74.3587 122.774 65.6844 136.844 65.6844C142.541 65.6844 146.753 66.2313 146.753 66.2313L146.422 79.375C146.422 79.375 142.126 79.3344 137.438 79.3344C132.364 79.3344 131.55 81.6722 131.55 85.5532V95.8313H146.825L146.159 109.906H131.55V149H145.741C155.856 149 164 140.856 164 130.741V67.2595C164 57.1446 155.856 49.0001 145.741 49.0001H82.2593L82.2594 49Z" fill="#3B5998"/>
<defs>
<filter id="filter0_d" x="0" y="0" width="693" height="201" filterUnits="userSpaceOnUse" color-interpolation-filters="sRGB">
<feFlood flood-opacity="0" result="BackgroundImageFix"/>
<feColorMatrix in="SourceAlpha" type="matrix" values="0 0 0 0 0 0 0 0 0 0 0 0 0 0 0 0 0 0 127 0"/>
<feMorphology radius="4" operator="dilate" in="SourceAlpha" result="effect1_dropShadow"/>
<feOffset/>
<feGaussianBlur stdDeviation="10"/>
<feColorMatrix type="matrix" values="0 0 0 0 0 0 0 0 0 0.145853 0 0 0 0 0.516667 0 0 0 0.4 0"/>
<feBlend mode="normal" in2="BackgroundImageFix" result="effect1_dropShadow"/>
<feBlend mode="normal" in="SourceGraphic" in2="effect1_dropShadow" result="shape"/>
</filter>
</defs>
</svg>
