<svg width="462" height="511" viewBox="0 0 462 511" fill="none" xmlns="http://www.w3.org/2000/svg">
<path d="M402.781 199.747C398.411 208.112 391.66 214.994 383.379 219.522C375.099 224.049 365.662 226.02 356.261 225.185C346.861 224.349 337.919 220.745 330.567 214.828C323.215 208.91 317.783 200.946 314.958 191.941C312.132 182.937 312.04 173.296 314.694 164.24C317.347 155.183 322.626 147.116 329.864 141.06C337.102 135.003 345.973 131.229 355.356 130.215C364.739 129.2 374.212 130.991 382.577 135.36C388.131 138.261 393.06 142.227 397.082 147.033C401.103 151.839 404.138 157.39 406.015 163.369C407.891 169.348 408.571 175.638 408.016 181.88C407.461 188.121 405.682 194.193 402.781 199.747Z" fill="white"/>
<path d="M379.807 129.213L375.95 136.597L385.349 141.507L389.206 134.124L379.807 129.213Z" fill="white"/>
<path d="M377.481 123.853L375.833 127.007C375.223 128.174 375.675 129.615 376.842 130.224L390.064 137.134C391.231 137.744 392.671 137.292 393.281 136.125L394.929 132.971C395.539 131.804 395.088 130.363 393.92 129.753L380.699 122.844C379.532 122.234 378.091 122.686 377.481 123.853Z" fill="white"/>
<path d="M409.814 158.983L403.755 160.885L406.176 168.599L412.235 166.697L409.814 158.983Z" fill="white"/>
<path d="M410.911 155.007L409.404 155.48C408.147 155.875 407.447 157.213 407.842 158.47L410.908 168.245C411.303 169.502 412.641 170.201 413.898 169.807L415.406 169.334C416.663 168.939 417.362 167.601 416.968 166.344L413.901 156.569C413.507 155.312 412.168 154.613 410.911 155.007Z" fill="white"/>
<path d="M393.81 195.062C390.366 201.653 385.046 207.075 378.521 210.642C371.996 214.209 364.56 215.761 357.153 215.101C349.746 214.442 342.701 211.601 336.908 206.938C331.116 202.275 326.836 195.999 324.61 188.904C322.385 181.808 322.313 174.212 324.404 167.076C326.496 159.94 330.656 153.584 336.36 148.813C342.063 144.041 349.053 141.068 356.447 140.269C363.84 139.47 371.304 140.881 377.895 144.325C382.272 146.611 386.155 149.737 389.324 153.524C392.492 157.311 394.884 161.685 396.362 166.397C397.84 171.109 398.375 176.065 397.937 180.984C397.499 185.902 396.097 190.686 393.81 195.062Z" fill="#4E71E0"/>
<path d="M366.496 180.794C365.875 181.983 364.915 182.961 363.738 183.604C362.561 184.248 361.22 184.528 359.884 184.409C358.547 184.29 357.277 183.778 356.232 182.936C355.187 182.095 354.415 180.963 354.013 179.683C353.612 178.403 353.599 177.033 353.976 175.746C354.354 174.459 355.104 173.312 356.133 172.451C357.162 171.591 358.423 171.054 359.756 170.91C361.09 170.766 362.436 171.021 363.625 171.642C365.22 172.475 366.418 173.907 366.956 175.624C367.494 177.34 367.329 179.2 366.496 180.794Z" fill="white"/>
<path d="M360.221 178.157C360.155 178.123 360.096 178.075 360.048 178.018C360.001 177.961 359.965 177.895 359.942 177.823C359.92 177.752 359.912 177.677 359.919 177.603C359.926 177.529 359.947 177.457 359.982 177.391L374.229 150.118C374.262 150.049 374.308 149.988 374.365 149.937C374.423 149.887 374.489 149.849 374.562 149.824C374.634 149.8 374.711 149.791 374.787 149.797C374.863 149.803 374.937 149.825 375.004 149.86C375.072 149.895 375.131 149.944 375.18 150.003C375.228 150.062 375.264 150.13 375.286 150.203C375.307 150.276 375.314 150.353 375.305 150.429C375.296 150.505 375.272 150.578 375.234 150.644L360.99 177.916C360.92 178.05 360.799 178.151 360.655 178.196C360.511 178.241 360.355 178.227 360.221 178.157Z" fill="white"/>
<path d="M375.752 148.429C375.686 148.395 375.627 148.347 375.58 148.29C375.532 148.233 375.496 148.167 375.474 148.095C375.452 148.024 375.444 147.949 375.45 147.875C375.457 147.801 375.479 147.729 375.513 147.663L376.368 146.026C376.438 145.893 376.558 145.793 376.702 145.747C376.845 145.702 377.001 145.716 377.135 145.786C377.268 145.856 377.368 145.976 377.414 146.119C377.459 146.263 377.445 146.419 377.375 146.552L376.521 148.188C376.451 148.322 376.33 148.423 376.186 148.468C376.042 148.513 375.886 148.499 375.752 148.429Z" fill="white"/>
<path d="M343.926 209.35C343.793 209.28 343.693 209.16 343.649 209.017C343.604 208.873 343.618 208.718 343.688 208.585L344.544 206.949C344.614 206.815 344.734 206.715 344.877 206.67C345.021 206.625 345.177 206.639 345.31 206.709C345.444 206.778 345.544 206.898 345.589 207.042C345.634 207.186 345.62 207.341 345.551 207.475L344.699 209.111C344.664 209.178 344.616 209.237 344.559 209.285C344.501 209.333 344.434 209.369 344.362 209.391C344.29 209.413 344.215 209.421 344.14 209.414C344.065 209.407 343.993 209.385 343.926 209.35Z" fill="white"/>
<path d="M370.461 146.233C370.39 146.21 370.324 146.173 370.267 146.125C370.21 146.077 370.163 146.018 370.129 145.951C370.095 145.885 370.075 145.812 370.069 145.738C370.063 145.663 370.072 145.588 370.095 145.517L370.651 143.757C370.7 143.617 370.801 143.503 370.934 143.437C371.066 143.371 371.219 143.359 371.359 143.403C371.5 143.448 371.618 143.546 371.688 143.676C371.759 143.806 371.775 143.958 371.735 144.1L371.178 145.861C371.132 146.005 371.031 146.124 370.896 146.194C370.762 146.264 370.606 146.278 370.461 146.233Z" fill="white"/>
<path d="M349.697 211.753C349.626 211.73 349.56 211.694 349.502 211.645C349.445 211.597 349.398 211.538 349.364 211.472C349.329 211.405 349.309 211.333 349.302 211.258C349.296 211.184 349.305 211.108 349.327 211.037L349.884 209.278C349.905 209.205 349.94 209.136 349.987 209.076C350.034 209.016 350.094 208.967 350.161 208.93C350.228 208.894 350.301 208.871 350.377 208.864C350.453 208.857 350.53 208.865 350.603 208.888C350.676 208.911 350.743 208.948 350.801 208.998C350.859 209.048 350.906 209.108 350.94 209.177C350.974 209.245 350.994 209.32 350.998 209.396C351.003 209.472 350.992 209.549 350.966 209.62L350.411 211.381C350.366 211.525 350.265 211.645 350.131 211.714C349.997 211.784 349.841 211.798 349.697 211.753Z" fill="white"/>
<path d="M364.867 144.979C364.793 144.97 364.722 144.945 364.657 144.908C364.593 144.871 364.536 144.821 364.491 144.762C364.446 144.703 364.413 144.635 364.394 144.563C364.375 144.491 364.37 144.416 364.38 144.342L364.619 142.513C364.638 142.363 364.717 142.228 364.836 142.136C364.956 142.044 365.107 142.003 365.257 142.023C365.407 142.043 365.542 142.121 365.634 142.24C365.726 142.36 365.767 142.511 365.747 142.661L365.5 144.493C365.48 144.641 365.403 144.775 365.284 144.867C365.165 144.958 365.015 144.998 364.867 144.979Z" fill="white"/>
<path d="M355.793 213.114C355.719 213.104 355.647 213.079 355.583 213.042C355.519 213.004 355.462 212.954 355.417 212.895C355.372 212.835 355.339 212.768 355.32 212.695C355.301 212.623 355.297 212.548 355.307 212.474L355.546 210.645C355.565 210.495 355.644 210.36 355.764 210.268C355.883 210.176 356.035 210.136 356.184 210.155C356.334 210.175 356.47 210.253 356.561 210.373C356.653 210.493 356.694 210.644 356.674 210.794L356.435 212.623C356.426 212.698 356.401 212.77 356.364 212.835C356.326 212.9 356.276 212.957 356.216 213.002C356.156 213.048 356.088 213.081 356.015 213.1C355.943 213.119 355.867 213.124 355.793 213.114Z" fill="white"/>
<path d="M359.143 144.722C359.068 144.726 358.993 144.715 358.922 144.69C358.851 144.664 358.786 144.625 358.731 144.575C358.675 144.524 358.63 144.463 358.599 144.395C358.567 144.327 358.549 144.253 358.546 144.178L358.468 142.335C358.463 142.26 358.474 142.185 358.499 142.114C358.524 142.043 358.563 141.978 358.613 141.923C358.664 141.867 358.725 141.822 358.793 141.79C358.861 141.758 358.934 141.739 359.009 141.736C359.084 141.733 359.159 141.744 359.23 141.77C359.3 141.796 359.365 141.836 359.42 141.887C359.475 141.938 359.52 142 359.551 142.068C359.582 142.136 359.599 142.21 359.602 142.285L359.682 144.131C359.687 144.281 359.634 144.426 359.533 144.537C359.432 144.647 359.292 144.714 359.143 144.722Z" fill="white"/>
<path d="M362.043 213.395C361.968 213.398 361.894 213.386 361.824 213.36C361.754 213.334 361.69 213.295 361.635 213.244C361.58 213.194 361.536 213.132 361.505 213.065C361.474 212.997 361.456 212.923 361.454 212.849L361.37 211.007C361.364 210.856 361.418 210.708 361.52 210.596C361.622 210.484 361.765 210.418 361.917 210.411C361.991 210.408 362.065 210.419 362.136 210.444C362.206 210.47 362.27 210.509 362.325 210.56C362.38 210.61 362.424 210.671 362.455 210.739C362.486 210.807 362.503 210.88 362.506 210.955L362.588 212.801C362.594 212.952 362.54 213.099 362.438 213.21C362.336 213.321 362.194 213.388 362.043 213.395Z" fill="white"/>
<path d="M353.46 145.462C353.387 145.478 353.312 145.48 353.239 145.467C353.166 145.453 353.096 145.426 353.033 145.386C352.97 145.346 352.916 145.293 352.874 145.232C352.832 145.171 352.802 145.102 352.786 145.029L352.388 143.227C352.372 143.155 352.37 143.08 352.383 143.006C352.395 142.933 352.423 142.863 352.463 142.8C352.543 142.673 352.671 142.583 352.818 142.551C352.964 142.518 353.118 142.545 353.245 142.625C353.372 142.706 353.462 142.834 353.494 142.981L353.893 144.785C353.925 144.932 353.898 145.086 353.816 145.213C353.735 145.34 353.607 145.43 353.46 145.462Z" fill="white"/>
<path d="M368.24 212.588C368.093 212.619 367.94 212.591 367.813 212.51C367.687 212.429 367.598 212.301 367.566 212.155L367.168 210.351C367.151 210.279 367.149 210.203 367.162 210.13C367.175 210.056 367.202 209.986 367.243 209.923C367.283 209.86 367.335 209.806 367.396 209.763C367.457 209.72 367.526 209.69 367.599 209.674C367.672 209.658 367.747 209.656 367.82 209.669C367.893 209.681 367.963 209.709 368.026 209.749C368.089 209.789 368.143 209.841 368.185 209.903C368.227 209.964 368.257 210.033 368.272 210.106L368.674 211.909C368.69 211.982 368.692 212.058 368.68 212.132C368.667 212.205 368.639 212.276 368.599 212.339C368.558 212.402 368.506 212.457 368.444 212.499C368.383 212.542 368.313 212.572 368.24 212.588Z" fill="white"/>
<path d="M347.992 147.177C347.852 147.234 347.696 147.234 347.558 147.176C347.419 147.118 347.309 147.007 347.251 146.868L346.547 145.162C346.516 145.092 346.498 145.017 346.496 144.941C346.494 144.865 346.508 144.789 346.536 144.718C346.563 144.647 346.605 144.583 346.659 144.528C346.712 144.474 346.776 144.431 346.847 144.401C346.917 144.372 346.993 144.358 347.069 144.358C347.145 144.359 347.221 144.375 347.29 144.405C347.36 144.436 347.423 144.48 347.476 144.536C347.528 144.591 347.569 144.656 347.596 144.728L348.299 146.434C348.328 146.503 348.343 146.577 348.344 146.652C348.344 146.727 348.329 146.801 348.301 146.87C348.272 146.939 348.23 147.002 348.177 147.055C348.124 147.107 348.061 147.149 347.992 147.177Z" fill="white"/>
<path d="M374.206 210.715C374.067 210.772 373.911 210.772 373.772 210.714C373.633 210.656 373.522 210.545 373.464 210.406L372.758 208.701C372.73 208.632 372.715 208.558 372.715 208.483C372.715 208.408 372.73 208.334 372.759 208.265C372.788 208.196 372.831 208.133 372.884 208.08C372.937 208.028 373 207.986 373.07 207.958C373.138 207.929 373.212 207.914 373.286 207.914C373.361 207.914 373.434 207.929 373.503 207.958C373.571 207.987 373.634 208.029 373.686 208.082C373.738 208.135 373.779 208.198 373.807 208.267L374.513 209.973C374.541 210.042 374.556 210.116 374.556 210.191C374.557 210.265 374.542 210.339 374.513 210.408C374.485 210.477 374.443 210.54 374.39 210.592C374.338 210.645 374.275 210.687 374.206 210.715Z" fill="white"/>
<path d="M342.904 149.817C342.777 149.896 342.623 149.923 342.476 149.89C342.329 149.857 342.201 149.767 342.121 149.64L341.132 148.083C341.067 147.957 341.052 147.811 341.088 147.674C341.125 147.537 341.212 147.419 341.331 147.343C341.45 147.267 341.594 147.237 341.733 147.261C341.873 147.285 341.999 147.36 342.086 147.472L343.075 149.031C343.115 149.093 343.143 149.164 343.156 149.237C343.17 149.311 343.168 149.386 343.153 149.459C343.137 149.532 343.107 149.601 343.064 149.663C343.021 149.724 342.967 149.776 342.904 149.817Z" fill="white"/>
<path d="M379.751 207.837C379.688 207.877 379.618 207.904 379.545 207.917C379.471 207.929 379.396 207.927 379.324 207.911C379.252 207.894 379.183 207.864 379.122 207.821C379.062 207.778 379.01 207.724 378.971 207.661L377.975 206.101C377.931 206.038 377.901 205.968 377.885 205.893C377.87 205.818 377.869 205.741 377.884 205.667C377.899 205.592 377.929 205.521 377.972 205.458C378.015 205.395 378.071 205.341 378.135 205.3C378.199 205.259 378.271 205.232 378.346 205.219C378.422 205.206 378.498 205.209 378.573 205.227C378.647 205.245 378.717 205.277 378.778 205.323C378.839 205.368 378.89 205.426 378.929 205.492L379.931 207.055C379.971 207.118 379.998 207.189 380.01 207.262C380.023 207.336 380.021 207.411 380.004 207.484C379.987 207.557 379.956 207.625 379.913 207.686C379.869 207.747 379.814 207.798 379.751 207.837Z" fill="white"/>
<path d="M338.352 153.299C338.24 153.399 338.094 153.451 337.944 153.444C337.794 153.436 337.653 153.37 337.552 153.258L336.306 151.896C336.216 151.784 336.172 151.642 336.183 151.498C336.194 151.355 336.259 151.221 336.365 151.123C336.471 151.026 336.61 150.973 336.754 150.974C336.898 150.975 337.036 151.031 337.14 151.131L338.387 152.495C338.437 152.55 338.477 152.614 338.502 152.685C338.528 152.755 338.54 152.829 338.536 152.904C338.533 152.979 338.515 153.052 338.484 153.12C338.452 153.188 338.407 153.248 338.352 153.299Z" fill="white"/>
<path d="M384.718 204.039C384.606 204.14 384.459 204.193 384.309 204.186C384.158 204.179 384.017 204.112 383.915 204.001L382.669 202.639C382.581 202.526 382.538 202.385 382.55 202.242C382.562 202.1 382.627 201.967 382.733 201.87C382.838 201.774 382.976 201.721 383.119 201.721C383.262 201.722 383.399 201.777 383.504 201.875L384.75 203.235C384.801 203.29 384.841 203.354 384.867 203.424C384.893 203.495 384.904 203.569 384.901 203.644C384.898 203.719 384.881 203.792 384.849 203.86C384.818 203.928 384.773 203.989 384.718 204.039Z" fill="white"/>
<path d="M334.476 157.518C334.383 157.637 334.247 157.714 334.098 157.732C333.949 157.751 333.798 157.709 333.679 157.617L332.218 156.494C332.159 156.448 332.11 156.392 332.073 156.327C332.035 156.263 332.011 156.191 332.001 156.117C331.992 156.043 331.997 155.968 332.016 155.896C332.035 155.824 332.069 155.757 332.114 155.698C332.16 155.639 332.216 155.589 332.281 155.552C332.345 155.515 332.417 155.49 332.491 155.481C332.564 155.471 332.64 155.476 332.712 155.495C332.784 155.515 332.851 155.548 332.91 155.593L334.374 156.719C334.433 156.765 334.483 156.821 334.52 156.886C334.558 156.951 334.582 157.023 334.592 157.097C334.601 157.172 334.596 157.247 334.576 157.319C334.556 157.392 334.522 157.459 334.476 157.518Z" fill="white"/>
<path d="M388.947 199.434C388.901 199.494 388.845 199.543 388.78 199.58C388.715 199.618 388.644 199.642 388.57 199.651C388.496 199.661 388.421 199.656 388.349 199.637C388.277 199.617 388.209 199.584 388.15 199.538L386.691 198.414C386.632 198.368 386.583 198.312 386.546 198.247C386.508 198.183 386.484 198.112 386.475 198.038C386.465 197.964 386.47 197.889 386.489 197.817C386.509 197.745 386.542 197.678 386.587 197.619C386.632 197.56 386.689 197.51 386.753 197.473C386.818 197.436 386.889 197.412 386.963 197.402C387.037 197.392 387.112 197.397 387.184 197.416C387.256 197.436 387.323 197.469 387.382 197.514L388.842 198.639C388.901 198.684 388.951 198.74 388.989 198.805C389.027 198.869 389.051 198.941 389.061 199.015C389.071 199.089 389.065 199.164 389.046 199.236C389.026 199.308 388.993 199.376 388.947 199.434Z" fill="white"/>
<path d="M331.39 162.346C331.355 162.412 331.308 162.471 331.251 162.519C331.194 162.567 331.128 162.603 331.057 162.625C330.985 162.647 330.91 162.655 330.836 162.648C330.762 162.641 330.69 162.619 330.624 162.584L328.99 161.732C328.924 161.697 328.866 161.65 328.818 161.593C328.77 161.536 328.734 161.471 328.712 161.4C328.69 161.329 328.682 161.254 328.689 161.18C328.696 161.106 328.717 161.034 328.752 160.968C328.822 160.835 328.942 160.735 329.086 160.691C329.23 160.646 329.386 160.66 329.52 160.73L331.157 161.585C331.288 161.656 331.386 161.775 331.43 161.918C331.473 162.06 331.459 162.214 331.39 162.346Z" fill="white"/>
<path d="M392.312 194.168C392.277 194.234 392.23 194.293 392.172 194.341C392.115 194.389 392.049 194.425 391.977 194.447C391.906 194.469 391.831 194.477 391.756 194.47C391.682 194.463 391.609 194.441 391.543 194.407L389.909 193.555C389.781 193.482 389.687 193.363 389.645 193.222C389.604 193.081 389.618 192.93 389.686 192.799C389.754 192.669 389.869 192.57 390.009 192.523C390.148 192.477 390.3 192.486 390.433 192.548L392.071 193.402C392.138 193.436 392.198 193.483 392.246 193.54C392.295 193.597 392.331 193.663 392.354 193.734C392.376 193.806 392.384 193.881 392.377 193.955C392.37 194.03 392.348 194.102 392.312 194.168Z" fill="white"/>
<path d="M329.19 167.636C329.144 167.78 329.043 167.899 328.908 167.967C328.774 168.036 328.618 168.049 328.475 168.002L326.718 167.447C326.647 167.425 326.58 167.389 326.522 167.341C326.465 167.293 326.417 167.234 326.382 167.168C326.348 167.102 326.326 167.029 326.32 166.955C326.313 166.88 326.321 166.805 326.343 166.733C326.366 166.662 326.402 166.596 326.451 166.538C326.499 166.481 326.558 166.434 326.624 166.4C326.691 166.365 326.764 166.344 326.838 166.338C326.913 166.332 326.988 166.341 327.059 166.364L328.82 166.922C328.891 166.944 328.957 166.981 329.014 167.029C329.072 167.077 329.119 167.136 329.153 167.202C329.188 167.268 329.209 167.341 329.215 167.415C329.222 167.49 329.213 167.565 329.19 167.636Z" fill="white"/>
<path d="M394.711 188.397C394.688 188.468 394.651 188.534 394.603 188.591C394.555 188.649 394.496 188.696 394.429 188.73C394.363 188.764 394.29 188.784 394.216 188.79C394.141 188.796 394.066 188.787 393.995 188.764L392.236 188.21C392.164 188.188 392.097 188.152 392.039 188.104C391.982 188.056 391.934 187.997 391.899 187.93C391.864 187.864 391.843 187.791 391.836 187.716C391.83 187.641 391.838 187.566 391.861 187.494C391.884 187.423 391.92 187.357 391.969 187.299C392.018 187.242 392.077 187.195 392.144 187.161C392.211 187.127 392.284 187.106 392.359 187.101C392.434 187.095 392.509 187.104 392.581 187.128L394.341 187.684C394.412 187.706 394.479 187.742 394.536 187.79C394.594 187.838 394.641 187.896 394.675 187.963C394.71 188.029 394.731 188.102 394.737 188.176C394.743 188.251 394.734 188.326 394.711 188.397Z" fill="white"/>
<path d="M327.942 173.228C327.932 173.302 327.907 173.373 327.87 173.438C327.832 173.502 327.782 173.559 327.723 173.604C327.664 173.649 327.596 173.682 327.524 173.701C327.452 173.719 327.376 173.724 327.303 173.714L325.474 173.475C325.401 173.465 325.33 173.441 325.265 173.404C325.201 173.367 325.144 173.317 325.099 173.258C325.054 173.199 325.021 173.131 325.001 173.06C324.982 172.988 324.977 172.913 324.987 172.839C324.997 172.765 325.021 172.694 325.058 172.63C325.096 172.565 325.145 172.509 325.204 172.464C325.264 172.418 325.331 172.385 325.403 172.366C325.475 172.347 325.55 172.342 325.623 172.352L327.454 172.59C327.603 172.611 327.738 172.69 327.829 172.809C327.92 172.929 327.961 173.079 327.942 173.228Z" fill="white"/>
<path d="M396.071 182.296C396.061 182.369 396.037 182.44 396 182.505C395.963 182.569 395.913 182.626 395.854 182.671C395.795 182.716 395.728 182.75 395.656 182.769C395.584 182.788 395.509 182.793 395.435 182.783L393.605 182.545C393.459 182.52 393.328 182.44 393.24 182.321C393.153 182.202 393.115 182.054 393.134 181.907C393.154 181.76 393.23 181.627 393.346 181.535C393.462 181.444 393.609 181.401 393.756 181.415L395.585 181.661C395.658 181.67 395.73 181.694 395.795 181.731C395.859 181.767 395.916 181.817 395.961 181.876C396.007 181.935 396.04 182.003 396.059 182.075C396.077 182.147 396.082 182.222 396.071 182.296Z" fill="white"/>
<path d="M327.683 178.954C327.686 179.029 327.674 179.103 327.648 179.173C327.623 179.243 327.583 179.307 327.533 179.362C327.482 179.417 327.421 179.461 327.353 179.492C327.286 179.523 327.212 179.54 327.138 179.543L325.295 179.621C325.22 179.625 325.146 179.614 325.075 179.589C325.004 179.564 324.939 179.526 324.883 179.475C324.828 179.425 324.783 179.364 324.751 179.296C324.719 179.229 324.701 179.155 324.697 179.08C324.694 179.005 324.706 178.93 324.732 178.86C324.757 178.79 324.797 178.725 324.848 178.67C324.899 178.615 324.96 178.571 325.028 178.54C325.097 178.509 325.17 178.491 325.245 178.489L327.093 178.408C327.243 178.402 327.39 178.457 327.5 178.559C327.611 178.661 327.677 178.803 327.683 178.954Z" fill="white"/>
<path d="M396.354 176.048C396.357 176.122 396.345 176.197 396.319 176.267C396.294 176.337 396.254 176.401 396.204 176.456C396.153 176.511 396.092 176.555 396.024 176.586C395.957 176.617 395.883 176.635 395.809 176.638L393.966 176.719C393.816 176.725 393.669 176.672 393.558 176.57C393.447 176.468 393.381 176.326 393.375 176.175C393.368 176.025 393.422 175.878 393.524 175.767C393.626 175.656 393.768 175.59 393.919 175.584L395.762 175.506C395.837 175.502 395.911 175.514 395.981 175.539C396.052 175.564 396.116 175.603 396.171 175.653C396.226 175.704 396.271 175.765 396.302 175.832C396.333 175.9 396.351 175.973 396.354 176.048Z" fill="white"/>
<path d="M328.424 184.634C328.44 184.707 328.441 184.783 328.428 184.856C328.415 184.93 328.387 185 328.347 185.063C328.306 185.125 328.254 185.179 328.192 185.222C328.131 185.264 328.061 185.294 327.988 185.309L326.188 185.705C326.114 185.724 326.037 185.728 325.962 185.716C325.887 185.705 325.815 185.678 325.75 185.638C325.686 185.598 325.63 185.546 325.585 185.484C325.541 185.422 325.51 185.352 325.494 185.278C325.477 185.204 325.476 185.127 325.49 185.052C325.503 184.977 325.532 184.906 325.574 184.843C325.616 184.779 325.67 184.725 325.733 184.683C325.796 184.641 325.867 184.612 325.942 184.597L327.747 184.198C327.895 184.166 328.049 184.194 328.176 184.276C328.303 184.358 328.392 184.487 328.424 184.634Z" fill="white"/>
<path d="M395.544 169.856C395.576 170.002 395.549 170.155 395.468 170.282C395.387 170.408 395.26 170.498 395.114 170.531L393.313 170.93C393.167 170.957 393.017 170.927 392.894 170.845C392.77 170.763 392.684 170.637 392.652 170.493C392.62 170.348 392.645 170.197 392.723 170.071C392.8 169.945 392.924 169.854 393.067 169.817L394.868 169.423C394.941 169.406 395.016 169.404 395.09 169.416C395.164 169.429 395.234 169.456 395.297 169.497C395.36 169.537 395.415 169.589 395.457 169.651C395.499 169.713 395.529 169.782 395.544 169.856Z" fill="white"/>
<path d="M330.137 190.104C330.166 190.172 330.181 190.246 330.181 190.321C330.18 190.395 330.165 190.469 330.137 190.538C330.108 190.607 330.066 190.669 330.013 190.721C329.959 190.774 329.897 190.815 329.827 190.843L328.124 191.551C327.986 191.603 327.833 191.599 327.698 191.541C327.563 191.482 327.456 191.372 327.4 191.236C327.344 191.1 327.343 190.947 327.397 190.81C327.452 190.673 327.558 190.562 327.693 190.502L329.404 189.796C329.542 189.741 329.696 189.742 329.834 189.8C329.971 189.857 330.08 189.966 330.137 190.104Z" fill="white"/>
<path d="M393.675 163.883C393.732 164.023 393.731 164.179 393.673 164.318C393.614 164.457 393.503 164.568 393.364 164.625L391.661 165.332C391.522 165.387 391.367 165.385 391.229 165.326C391.092 165.268 390.983 165.158 390.926 165.02C390.868 164.882 390.868 164.727 390.923 164.588C390.979 164.45 391.087 164.339 391.224 164.279L392.932 163.577C393.001 163.547 393.075 163.532 393.15 163.532C393.225 163.531 393.299 163.546 393.368 163.574C393.437 163.603 393.5 163.645 393.553 163.698C393.605 163.751 393.647 163.814 393.675 163.883Z" fill="white"/>
<path d="M332.775 195.19C332.816 195.253 332.843 195.323 332.856 195.397C332.868 195.47 332.867 195.546 332.85 195.619C332.833 195.692 332.803 195.76 332.759 195.821C332.716 195.882 332.661 195.934 332.598 195.973L331.047 196.962C330.985 197.008 330.913 197.041 330.838 197.059C330.762 197.076 330.683 197.078 330.607 197.064C330.53 197.05 330.457 197.02 330.393 196.977C330.328 196.934 330.273 196.877 330.231 196.812C330.19 196.746 330.162 196.673 330.149 196.596C330.137 196.519 330.14 196.441 330.16 196.365C330.179 196.29 330.213 196.219 330.261 196.158C330.309 196.096 330.369 196.045 330.437 196.008L331.999 195.015C332.126 194.936 332.278 194.911 332.423 194.943C332.568 194.976 332.695 195.065 332.775 195.19Z" fill="white"/>
<path d="M390.796 158.342C390.877 158.469 390.903 158.623 390.87 158.77C390.838 158.916 390.748 159.044 390.621 159.125L389.071 160.118C388.943 160.197 388.79 160.223 388.643 160.19C388.497 160.157 388.369 160.067 388.289 159.941C388.208 159.814 388.18 159.661 388.212 159.514C388.244 159.367 388.332 159.239 388.458 159.157L390.019 158.168C390.081 158.128 390.151 158.101 390.224 158.088C390.297 158.076 390.372 158.077 390.444 158.094C390.516 158.11 390.584 158.14 390.645 158.183C390.705 158.225 390.757 158.28 390.796 158.342Z" fill="white"/>
<path d="M336.258 199.741C336.308 199.796 336.347 199.861 336.372 199.931C336.398 200.001 336.409 200.076 336.405 200.15C336.401 200.225 336.382 200.298 336.35 200.365C336.318 200.432 336.273 200.493 336.217 200.542L334.858 201.787C334.804 201.843 334.739 201.887 334.668 201.916C334.596 201.946 334.52 201.96 334.443 201.959C334.365 201.958 334.289 201.941 334.219 201.91C334.148 201.878 334.085 201.832 334.033 201.776C333.98 201.719 333.94 201.652 333.915 201.579C333.889 201.506 333.879 201.429 333.884 201.352C333.89 201.275 333.911 201.199 333.946 201.131C333.982 201.062 334.031 201.002 334.091 200.953L335.456 199.704C335.568 199.604 335.715 199.551 335.865 199.558C336.015 199.565 336.156 199.631 336.258 199.741Z" fill="white"/>
<path d="M386.998 153.38C387.099 153.491 387.152 153.637 387.145 153.787C387.139 153.937 387.073 154.078 386.963 154.18L385.601 155.427C385.548 155.482 385.483 155.526 385.412 155.555C385.34 155.585 385.264 155.599 385.186 155.598C385.109 155.597 385.033 155.58 384.963 155.549C384.892 155.517 384.829 155.472 384.776 155.415C384.724 155.358 384.684 155.291 384.659 155.218C384.633 155.145 384.623 155.068 384.628 154.991C384.634 154.914 384.655 154.839 384.69 154.77C384.726 154.701 384.775 154.641 384.835 154.592L386.195 153.347C386.25 153.295 386.314 153.256 386.384 153.23C386.454 153.204 386.529 153.192 386.604 153.195C386.678 153.198 386.752 153.216 386.819 153.248C386.887 153.28 386.948 153.325 386.998 153.38Z" fill="white"/>
<path d="M340.48 203.62C340.538 203.666 340.588 203.723 340.624 203.787C340.661 203.852 340.685 203.923 340.694 203.997C340.703 204.071 340.698 204.146 340.678 204.217C340.658 204.289 340.624 204.356 340.579 204.415L339.453 205.878C339.408 205.937 339.351 205.987 339.287 206.024C339.222 206.061 339.151 206.085 339.077 206.095C338.928 206.115 338.778 206.074 338.659 205.983C338.539 205.892 338.461 205.757 338.442 205.608C338.422 205.459 338.462 205.308 338.554 205.189L339.682 203.722C339.774 203.603 339.91 203.525 340.06 203.506C340.209 203.487 340.36 203.528 340.48 203.62Z" fill="white"/>
<path d="M382.394 149.15C382.514 149.242 382.591 149.377 382.611 149.526C382.63 149.675 382.59 149.826 382.498 149.945L381.376 151.407C381.332 151.471 381.276 151.524 381.211 151.565C381.145 151.606 381.073 151.633 380.997 151.645C380.921 151.656 380.843 151.653 380.769 151.634C380.694 151.615 380.625 151.581 380.563 151.534C380.502 151.488 380.451 151.429 380.414 151.362C380.376 151.295 380.352 151.221 380.344 151.145C380.335 151.069 380.342 150.991 380.365 150.918C380.387 150.844 380.424 150.776 380.473 150.717L381.598 149.254C381.643 149.194 381.7 149.144 381.764 149.107C381.829 149.069 381.9 149.045 381.974 149.035C382.049 149.025 382.124 149.031 382.196 149.05C382.268 149.07 382.336 149.104 382.394 149.15Z" fill="white"/>
<path d="M341.951 44.1465C342.024 43.834 342.1 43.5144 342.178 43.1864C342.277 42.8227 342.313 42.4422 342.378 42.0654C342.444 41.6885 342.521 41.3117 342.536 40.9336C342.563 40.6068 342.589 40.2884 342.613 39.9736C344.214 40.5532 350.804 42.6486 356.575 40.1823C363.194 37.3522 366.224 29.5884 366.224 29.5884C366.224 29.5884 358.523 26.4126 351.899 29.2426C346.629 31.4942 343.638 36.8669 342.634 38.9682C342.634 38.905 342.634 38.8382 342.634 38.775C342.64 38.4514 342.627 38.1276 342.595 37.8054C342.579 37.4918 342.563 37.1984 342.566 36.9277C342.568 36.657 342.531 36.4793 342.53 36.3004C342.524 36.1144 342.533 35.9282 342.555 35.7434C342.584 35.5429 342.564 35.3384 342.497 35.1473C342.429 34.9562 342.317 34.7843 342.168 34.6462C342.049 34.5359 341.909 34.4502 341.756 34.3941C341.603 34.3379 341.441 34.3124 341.278 34.319C341.115 34.3256 340.956 34.3642 340.808 34.4325C340.66 34.5008 340.527 34.5975 340.417 34.7172C340.307 34.8369 340.221 34.9771 340.165 35.1298C340.109 35.2826 340.083 35.4449 340.09 35.6076C340.096 35.7702 340.135 35.9299 340.203 36.0777C340.272 36.2254 340.368 36.3582 340.488 36.4685L340.502 36.4816C340.632 36.6108 340.752 36.7499 340.86 36.8979C340.985 37.0535 341.096 37.2199 341.192 37.3952C341.275 37.5741 341.352 37.7875 341.437 38.0249C341.526 38.2954 341.581 38.5757 341.602 38.8597C341.632 39.1686 341.7 39.4918 341.707 39.834C341.714 40.1763 341.722 40.5305 341.731 40.8907C341.739 41.2508 341.685 41.6158 341.666 41.9831C341.653 42.3492 341.613 42.7139 341.547 43.0743C341.502 43.3283 341.458 43.574 341.412 43.8197C332.536 33.8019 320.339 40.2419 316.606 51.3891C313.395 60.9633 316.884 72.4157 324.913 77.9744C325.681 78.5141 326.577 78.8422 327.512 78.926C328.447 79.0097 329.387 78.8461 330.239 78.4515C330.561 79.1859 331.065 79.8261 331.703 80.3113C332.342 80.7966 333.093 81.1108 333.887 81.2243C343.898 82.4729 354.128 74.9524 357.436 65.0861C361.194 53.8661 356.921 41.9914 341.951 44.1465Z" fill="white"/>
<path d="M80.7799 193.88C80.6941 193.63 80.6046 193.376 80.5152 193.114C80.4031 192.826 80.3422 192.517 80.2564 192.217C80.1705 191.916 80.0751 191.613 80.0322 191.306C79.9833 191.041 79.9344 190.782 79.889 190.528C78.6297 191.136 73.4276 193.402 68.5081 191.877C62.8648 190.125 59.7366 184.043 59.7366 184.043C59.7366 184.043 65.7568 180.8 71.4025 182.552C75.895 183.945 78.7895 188.078 79.7853 189.708C79.7853 189.655 79.7781 189.601 79.771 189.549C79.739 189.286 79.7227 189.021 79.7221 188.756C79.7078 188.497 79.6971 188.256 79.672 188.034C79.647 187.813 79.6625 187.667 79.647 187.52C79.6366 187.368 79.6147 187.217 79.5814 187.068C79.5266 186.858 79.541 186.635 79.6224 186.433C79.7037 186.231 79.8479 186.06 80.0335 185.946C80.2191 185.832 80.4364 185.78 80.6534 185.799C80.8705 185.818 81.0757 185.906 81.2391 186.05C81.4402 186.228 81.5625 186.479 81.5793 186.747C81.5961 187.015 81.5059 187.279 81.3285 187.481L81.3178 187.492C81.2213 187.608 81.1347 187.733 81.059 187.864C80.9691 188.001 80.8921 188.146 80.8288 188.297C80.7752 188.449 80.731 188.631 80.6809 188.832C80.6318 189.059 80.6105 189.292 80.6177 189.524C80.6177 189.779 80.5915 190.049 80.6177 190.329C80.644 190.609 80.6643 190.898 80.6881 191.192C80.712 191.487 80.7859 191.781 80.8324 192.08C80.8757 192.377 80.9403 192.671 81.0256 192.959C81.084 193.163 81.1449 193.359 81.1985 193.555C87.6004 184.622 98.1 188.861 102.092 197.641C105.522 205.185 103.642 214.83 97.5597 220.044C96.9783 220.549 96.2742 220.893 95.518 221.041C94.7617 221.189 93.9799 221.135 93.2509 220.886C93.0504 221.512 92.6931 222.077 92.2131 222.527C91.7331 222.977 91.1461 223.296 90.5079 223.456C82.4424 225.32 73.4538 220.044 69.9225 212.268C65.8939 203.437 68.3769 193.383 80.7799 193.88Z" fill="white"/>
<path d="M89.8318 105.015C88.8638 104.707 87.813 104.796 86.9102 105.262C86.0074 105.728 85.3266 106.533 85.0173 107.501L86.1944 103.811C86.3914 103.193 86.4649 102.543 86.4106 101.897C86.3562 101.251 86.1752 100.622 85.8778 100.046C85.5804 99.4699 85.1725 98.9581 84.6773 98.5398C84.1821 98.1214 83.6093 97.8046 82.9917 97.6076C82.3741 97.4106 81.7237 97.3372 81.0777 97.3915C80.4317 97.4458 79.8028 97.6268 79.2268 97.9242C78.6507 98.2216 78.1389 98.6296 77.7206 99.1248C77.3022 99.62 76.9854 100.193 76.7884 100.81L72.7002 113.62L41.0177 103.512L45.1071 90.7007C45.496 89.4558 45.3765 88.1076 44.7747 86.9505C44.1729 85.7934 43.1378 84.9214 41.8952 84.5249C40.6527 84.1285 39.3038 84.2397 38.1431 84.8344C36.9823 85.4291 36.104 86.4589 35.6999 87.6989L34.524 91.3876C34.8327 90.4196 34.7442 89.3686 34.278 88.4658C33.8118 87.563 33.0061 86.8824 32.0381 86.5737C31.07 86.265 30.019 86.3535 29.1162 86.8197C28.2135 87.2859 27.5328 88.0917 27.2241 89.0597L19.0751 114.6C18.9125 115.082 18.8474 115.591 18.8836 116.098C18.9198 116.605 19.0566 117.1 19.286 117.554C19.5154 118.008 19.8329 118.411 20.2198 118.741C20.6067 119.071 21.0555 119.32 21.5398 119.475C22.0241 119.629 22.5344 119.686 23.0408 119.641C23.5473 119.597 24.0397 119.452 24.4896 119.215C24.9394 118.978 25.3376 118.654 25.6609 118.261C25.9842 117.869 26.2261 117.416 26.3726 116.929L25.1967 120.619C24.7987 121.866 24.9123 123.22 25.5126 124.384C26.1129 125.547 27.1507 126.424 28.3977 126.822C29.6447 127.22 30.9987 127.107 32.1619 126.506C33.3252 125.906 34.2023 124.868 34.6004 123.621L38.6898 110.813L70.3734 120.923L66.2828 133.734C65.8848 134.982 65.9987 136.337 66.5994 137.5C67.2001 138.664 68.2385 139.541 69.4862 139.939C70.7338 140.337 72.0884 140.224 73.2521 139.623C74.4158 139.022 75.2932 137.984 75.6912 136.736L76.8671 133.046C76.7045 133.528 76.6394 134.037 76.6756 134.544C76.7118 135.051 76.8486 135.546 77.078 136C77.3074 136.454 77.6249 136.857 78.0118 137.187C78.3987 137.517 78.8475 137.766 79.3318 137.921C79.8161 138.075 80.3264 138.132 80.8328 138.087C81.3393 138.043 81.8318 137.898 82.2816 137.661C82.7314 137.424 83.1296 137.1 83.4529 136.707C83.7762 136.315 84.0181 135.862 84.1646 135.375L92.316 109.832C92.6249 108.864 92.5367 107.813 92.0709 106.91C91.605 106.007 90.7997 105.325 89.8318 105.015Z" fill="white"/>
<path d="M130.948 483.796C121.453 481.291 109.374 475.041 98.9313 470.133C77.076 459.8 56.41 447.119 37.2979 432.315C23.6904 421.797 9.73348 406.922 3.32328 390.63C0.244 382.801 -2.31054 370.076 3.38649 362.768C17.2516 344.979 54.2841 373.556 64.6072 383.465C92.6177 410.354 116.713 447.325 130.948 483.796Z" fill="#4E71E0"/>
<g style="mix-blend-mode:color-burn">
<path d="M28.8604 359.929L28.1293 359.501C28.0554 359.63 21.0095 371.872 21.384 383.597C10.4526 371.067 3.91841 362.76 3.72043 362.506L3.05258 363.029C3.24936 363.279 9.72396 371.509 20.5635 383.942C8.60531 379.871 1.0049 381.354 0.679321 381.424L0.852244 382.259C0.93334 382.243 9.15629 380.627 21.6869 385.234C29.3386 393.974 39.0272 404.638 50.1375 416.013C29.0285 406.795 12.4646 406.395 12.2952 406.389L12.2785 407.236C12.4514 407.236 29.8407 407.654 51.6914 417.632L51.7415 417.654C60.2089 426.267 69.4647 435.249 79.2439 444.077C56.2805 435.782 43.3468 436.383 43.218 436.39L43.2645 437.233C43.3981 437.226 56.8804 436.594 80.916 445.588H80.9291C88.5617 452.418 96.4936 459.135 104.615 465.505C86.4162 459.108 77.5373 458.588 77.4443 458.581L77.4002 459.427C77.4956 459.427 87.0268 459.988 106.738 467.165C114.609 473.247 122.635 478.986 130.715 484.156L131.171 483.44C123.099 478.274 115.078 472.544 107.22 466.464C100.401 453.914 105.394 433.57 105.444 433.367L104.624 433.162C104.573 433.358 99.9057 452.389 105.697 465.276C97.3666 458.764 89.226 451.883 81.4097 444.882C74.7312 425.793 85.226 405.966 85.3322 405.765L84.588 405.363C84.4794 405.559 74.3316 424.75 80.1551 443.75C70.2017 434.779 60.7897 425.646 52.1923 416.895C46.7266 403.507 58.9281 378.685 59.0521 378.433L58.2972 378.058C57.7999 379.049 46.7576 401.528 50.8113 415.484C39.6677 404.075 29.9504 393.375 22.2832 384.621C21.4257 372.846 28.7828 360.058 28.8604 359.929Z" fill="#9B9B9B"/>
</g>
<g style="mix-blend-mode:multiply" opacity="0.5">
<path d="M51.6055 372.799C51.6055 372.799 41.8179 365.44 34.6253 362.385C34.6253 362.385 65.0997 440.092 120.761 475.398L121.089 470.578L91.0208 407.132L51.6055 372.799Z" fill="#C1C1C1"/>
</g>
<path d="M132.05 485.334C130.531 478.919 116.427 466.378 111.566 460.29C95.6167 440.516 80.6932 419.936 66.854 398.632C44.5525 363.948 21.6797 316.82 23.168 274.532C23.719 258.902 29.6081 232.53 49.1547 231.277C63.7664 230.34 75.4383 246.201 82.3268 257.288C100.435 286.431 109.16 320.537 116.765 353.643C125.512 391.694 130.735 430.813 136.164 469.607L132.05 485.334Z" fill="#4E71E0"/>
<g style="mix-blend-mode:color-burn">
<path d="M112.936 433.11C112.331 398.869 122.161 376.3 122.26 376.076L121.117 375.569C121.018 375.789 111.627 397.335 111.659 430.253C105.491 416.405 99.8262 403.092 94.663 390.313C98.3267 343.901 110.579 327.308 110.703 327.145L109.709 326.386C109.204 327.047 97.5443 342.8 93.6267 387.739C86.8289 370.878 80.8814 355.062 75.6924 340.452C77.2332 298.025 92.7596 276.508 92.9171 276.29L91.9105 275.547C91.7543 275.757 76.7645 296.52 74.5869 337.323C68.1969 319.169 63.0056 302.958 58.8363 289.013C56.364 256.403 68.9447 240.263 69.0723 240.104L68.0968 239.321C67.9775 239.476 56.4403 254.235 57.3169 283.88C47.8441 251.523 44.2532 232.727 44.1733 232.294L42.9437 232.523C43.0272 232.97 46.8542 253.02 57.0462 287.382C52.0373 282.688 36.5812 269.071 23.8216 266.96L23.6189 268.195C38.2055 270.606 57.194 289.243 57.7701 289.81C61.9263 303.688 67.0902 319.789 73.43 337.801C68.346 332.293 53.9848 319.342 28.5145 315.475L28.3261 316.711C60.259 321.56 74.408 340.85 74.5475 341.04L74.6131 341.133C79.7413 355.55 85.6041 371.143 92.2886 387.749C87.4812 383.224 74.5845 373.404 50.6145 370.15L50.4463 371.388C81.2737 375.575 93.4096 390.692 93.5289 390.845L93.5432 390.864C98.3636 402.749 103.611 415.124 109.285 427.987C105.231 424.354 96.6666 419.452 78.6166 415.428L78.3447 416.649C102.528 422.041 109.226 428.983 111.035 431.925C117.547 446.508 124.642 461.625 132.32 477.276L133.441 476.724C126.055 461.72 119.219 447.182 112.936 433.11Z" fill="#9B9B9B"/>
</g>
<path d="M320.73 445.129C318.022 435.692 317.212 422.112 316.079 410.632C313.774 386.568 314.092 362.324 317.027 338.328C319.1 321.254 324.735 301.651 335.454 287.805C340.605 281.153 350.227 272.446 359.425 273.601C381.803 276.409 376.206 322.849 372.976 336.788C364.208 374.615 344.778 414.236 320.729 445.129H320.73Z" fill="#4E71E0"/>
<g style="mix-blend-mode:color-burn">
<path d="M374.899 294.033L374.893 293.187C374.745 293.187 360.621 293.4 350.74 299.722C355.909 283.918 359.702 274.054 359.819 273.753L359.028 273.448C358.909 273.746 355.157 283.519 350.022 299.194C347.398 286.836 342.239 281.066 342.012 280.828L341.387 281.401C341.442 281.462 347.039 287.7 349.497 300.823C345.904 311.871 341.7 325.653 337.611 341.013C334.731 318.16 326.598 303.724 326.52 303.577L325.785 303.996C325.87 304.147 334.413 319.299 337.025 343.176L337.031 343.232C333.963 354.912 330.985 367.46 328.405 380.381C323.78 356.41 316.644 345.606 316.572 345.497L315.87 345.969C315.944 346.079 323.391 357.339 327.961 382.59V382.605C325.997 392.655 324.287 402.911 322.974 413.147C319.157 394.235 315.059 386.34 315.018 386.259L314.268 386.655C314.313 386.737 318.714 395.212 322.636 415.821C321.435 425.695 320.609 435.529 320.309 445.115L321.155 445.142C321.46 435.564 322.279 425.741 323.48 415.877C330.772 403.594 350.806 397.476 351.008 397.415L350.769 396.605C350.573 396.662 331.836 402.391 323.726 413.96C325.055 403.471 326.801 392.956 328.815 382.658C341.8 367.154 364.2 366.02 364.426 366.011L364.39 365.165C364.166 365.173 342.482 366.27 329.143 381.002C331.755 367.86 334.785 355.1 337.905 343.234C346.611 331.687 374.179 329.469 374.458 329.445L374.394 328.61C373.288 328.69 348.327 330.708 338.408 341.333C342.507 325.92 346.725 312.096 350.326 301.023C359.998 294.255 374.755 294.035 374.899 294.033Z" fill="#9B9B9B"/>
</g>
<g style="mix-blend-mode:multiply" opacity="0.5">
<path d="M371.942 283.732C371.942 283.732 376.997 296.223 376.997 309.352L328.226 440.971L327.868 404.705C327.868 404.705 336.671 340.315 371.942 283.732Z" fill="#C1C1C1"/>
</g>
<path d="M322.072 479.731C322.072 465.228 326.459 445.614 329.534 428.847C336.072 393.73 346.407 359.428 360.358 326.545C370.263 303.141 386.26 277.601 407.127 262.308C417.152 254.962 434.369 246.519 446.959 251.906C477.596 265.019 450.712 328.688 440.441 347.168C412.567 397.313 368.822 445.665 322.073 479.731H322.072Z" fill="#4E71E0"/>
<g style="mix-blend-mode:color-burn">
<path d="M460.606 287.232L460.94 286.029C460.733 285.97 440.586 280.515 423.97 285.465C437.755 265.127 447.165 252.662 447.452 252.284L446.455 251.528C446.169 251.905 436.849 264.253 423.167 284.42C424.479 265.806 419.5 255.508 419.278 255.064L418.159 255.622C418.214 255.732 423.618 266.873 421.754 286.51C412.149 300.737 400.559 318.591 388.49 338.746C393.716 305.115 388.049 281.298 387.989 281.054L386.775 281.351C386.837 281.599 392.792 306.602 386.766 341.577L386.751 341.657C377.633 356.996 368.287 373.605 359.356 390.903C362.559 354.965 356.833 336.721 356.774 336.534L355.582 336.922C355.642 337.109 361.624 356.132 357.822 393.86V393.881C350.938 407.357 344.328 421.221 338.289 435.221C340.579 406.81 337.979 393.924 337.95 393.793L336.728 394.049C336.755 394.186 339.549 408.015 336.718 438.884C330.994 452.414 325.816 466.045 321.472 479.537L322.665 479.921C327.005 466.445 332.172 452.825 337.899 439.307C353.262 424.84 384.21 424.314 384.521 424.31L384.507 423.059C384.204 423.059 355.256 423.559 339.025 436.681C345.187 422.328 351.955 408.105 359.015 394.301C383.774 377.577 416.052 385.099 416.379 385.178L416.671 383.962C416.351 383.884 385.109 376.602 360.16 392.085C369.224 374.486 378.732 357.595 388 342.017C405.07 329.171 445.125 337.257 445.533 337.339L445.786 336.117C444.182 335.781 407.91 328.471 389.495 339.517C401.601 319.297 413.228 301.385 422.85 287.133C439.352 281.473 460.395 287.175 460.606 287.232Z" fill="#9B9B9B"/>
</g>
<g style="mix-blend-mode:color-burn">
<path d="M221.148 511C285.819 511 338.246 504.868 338.246 497.304C338.246 489.74 285.819 483.608 221.148 483.608C156.477 483.608 104.051 489.74 104.051 497.304C104.051 504.868 156.477 511 221.148 511Z" fill="#C1C1C1"/>
</g>
<path d="M323.287 64.6066H127.149C123.856 64.6066 121.186 67.2763 121.186 70.5695V490.014C121.186 493.307 123.856 495.977 127.149 495.977H323.287C326.58 495.977 329.25 493.307 329.25 490.014V70.5695C329.25 67.2763 326.58 64.6066 323.287 64.6066Z" fill="#0E263F"/>
<path d="M325.276 91.7739H125.162V445.617H325.276V91.7739Z" fill="#D6E7F2"/>
<path d="M225.219 483.607C232.538 483.607 238.471 477.674 238.471 470.355C238.471 463.036 232.538 457.103 225.219 457.103C217.9 457.103 211.966 463.036 211.966 470.355C211.966 477.674 217.9 483.607 225.219 483.607Z" fill="#D6E7F2"/>
<path opacity="0.5" d="M235.327 469.688C235.327 475.268 215.113 475.268 215.113 469.688C215.113 467.008 216.177 464.437 218.073 462.541C219.968 460.646 222.539 459.581 225.22 459.581C227.9 459.581 230.471 460.646 232.367 462.541C234.262 464.437 235.327 467.008 235.327 469.688Z" fill="#95B3C6"/>
<g style="mix-blend-mode:soft-light" opacity="0.4">
<path d="M125.162 488.175V71.3817H325.28L125.162 488.175Z" fill="white"/>
</g>
<path d="M153.804 361.356C219.007 361.356 296.238 361.551 296.238 361.551C297.663 389.494 298.84 415.007 299.746 439.471H223.199C222.407 433.644 221.752 428.353 221.274 423.809L219.069 439.471H150.267C150.849 413.414 152.028 387.369 153.804 361.356Z" fill="#C4C4C4"/>
<g style="mix-blend-mode:color-burn" opacity="0.4">
<path d="M153.058 365.193C160.499 375.668 202.402 381.182 220.873 381.182C239.344 381.182 286.481 378.148 296.405 366.571L296.166 360.182L229.69 358.302L153.732 359.987L153.058 365.193Z" fill="#C1C1C1"/>
</g>
<path d="M158.569 207.512C158.619 249.306 162.582 285.397 160.226 314.472C158.147 340.101 153.706 344.526 153.737 359.99C153.75 367.347 292.066 373.536 296.171 360.184C296.409 343.416 289.808 319.507 290.065 293.795C290.332 266.892 292.624 239.801 290.661 221.098L299.725 147.946C299.725 147.946 275.137 126.45 231.34 126.45C187.543 126.45 163.083 144.57 163.083 144.57C163.083 144.57 158.537 177.771 158.569 207.512Z" fill="#153556"/>
<path d="M182.915 61.6597C183.792 68.2189 188.878 76.6303 193.748 74.0937C197.672 72.0484 200.974 68.6411 200.109 62.0807C199.243 55.5202 195.801 52.3014 190.591 51.2495C184.97 50.1189 182.053 55.0956 182.915 61.6597Z" fill="#F29A86"/>
<path d="M184.465 53.376C185.515 52.0736 191.144 51.3736 192.769 56.3038L192.165 51.6527C190.915 51.1257 189.545 50.9505 188.203 51.1458C187.454 51.2191 186.731 51.457 186.084 51.8425C185.438 52.2281 184.885 52.7517 184.465 53.376Z" fill="#FFAF99"/>
<path d="M267.575 61.6597C266.704 68.2189 261.612 76.6303 256.747 74.0937C252.824 72.0484 249.518 68.6411 250.385 62.0807C251.252 55.5202 254.697 52.3014 259.908 51.2495C265.524 50.1189 268.444 55.0956 267.575 61.6597Z" fill="#F29A86"/>
<path d="M266.033 53.376C264.977 52.0737 259.354 51.3736 257.724 56.3038L258.326 51.6527C259.576 51.1261 260.947 50.9509 262.289 51.1458C263.039 51.2199 263.763 51.4581 264.41 51.8435C265.057 52.229 265.611 52.7522 266.033 53.376Z" fill="#FFAF99"/>
<path d="M248.3 93.0561C246.235 100.235 248.604 120.358 249.084 124.383C251.469 124.702 260.05 129.415 262.535 130.309C261.369 137.536 251.508 156.877 227.656 156.877C203.804 156.877 189.398 139.325 187.863 133C192.898 131.013 198.742 124.91 201.85 124.455C201.856 124.44 205.71 104.777 203.212 92.9845L248.3 93.0561Z" fill="#FFAF99"/>
<path d="M248.13 93.694C247.579 96.8559 247.36 100.067 247.477 103.274C247.477 103.274 234.536 117.206 225.33 117.206C216.123 117.206 204.036 104.344 204.036 104.344C204.036 104.344 204.13 96.2056 203.092 92.3845L248.13 93.694Z" fill="#F29A86"/>
<path d="M192.168 48.0069C192.168 56.7776 195.652 65.1891 201.854 71.391C208.056 77.5928 216.468 81.077 225.238 81.077C234.009 81.077 242.421 77.5928 248.622 71.391C254.824 65.1891 258.308 56.7776 258.308 48.0069C258.308 23.4883 243.5 11.6959 225.238 11.6959C206.975 11.6959 192.168 24.0011 192.168 48.0069Z" fill="#FFAF99"/>
<path d="M192.168 48.007C192.168 65.6967 192.168 80.5016 198.912 90.1151C202.978 95.9076 213.522 105.857 221.163 108.383C224.229 108.911 227.371 108.789 230.387 108.026C237.965 105.343 247.687 95.6428 251.564 90.1187C258.308 80.5052 258.308 65.7003 258.308 48.0105" fill="#FFAF99"/>
<path d="M205.153 59.9686C205.153 62.9703 206.958 65.4128 209.198 65.4128C211.439 65.4128 213.243 62.9703 213.243 59.9686C213.243 56.9668 211.431 54.522 209.198 54.522C206.966 54.522 205.153 56.9573 205.153 59.9686Z" fill="#0E263F"/>
<path d="M236.45 59.9686C236.45 62.9703 238.263 65.4128 240.505 65.4128C242.747 65.4128 244.548 62.9703 244.548 59.9686C244.548 56.9668 242.734 54.522 240.499 54.522C238.264 54.522 236.45 56.9573 236.45 59.9686Z" fill="#0E263F"/>
<path d="M214.514 47.0564C209.939 46.756 205.351 47.3661 201.014 48.8513" stroke="#0E263F" stroke-width="1.363" stroke-miterlimit="10" stroke-linecap="round"/>
<path d="M236.45 47.0564C241.025 46.7558 245.613 47.3659 249.949 48.8512" stroke="#0E263F" stroke-width="1.295" stroke-miterlimit="10" stroke-linecap="round"/>
<path d="M231.025 77.4926C228.905 76.4932 221.278 76.4193 219.475 77.4926C217.672 78.5659 223.291 80.0126 225.252 80.0126C227.213 80.0126 232.716 78.4204 231.025 77.4926Z" fill="#F29A86"/>
<path d="M238.367 85.1347C231.502 87.6929 220.452 88.6517 213.799 88.6386C212.973 88.6386 212.678 88.8103 213.777 89.1335C215.71 89.7024 221.947 95.9969 226.868 95.4543C231.789 94.9116 237.18 86.7054 238.687 85.52C239.32 85.0215 238.986 84.901 238.367 85.1347Z" fill="white"/>
<path d="M217.104 289.658C212.762 296.575 201.767 297.491 192.549 291.702C183.33 285.913 179.38 275.608 183.724 268.685C188.067 261.762 199.064 260.851 208.284 266.644C217.504 272.438 221.451 282.738 217.104 289.658Z" fill="#AFC8D8"/>
<path d="M183.726 268.688L190.366 257.93L223.243 279.175L216.337 290.725L190.725 282.454L183.726 268.688Z" fill="#AFC8D8"/>
<path d="M222.965 279.616C218.622 286.533 207.672 287.479 198.507 281.723C189.342 275.968 185.438 265.69 189.784 258.773C194.13 251.856 205.08 250.913 214.247 256.668C223.413 262.424 227.31 272.698 222.965 279.616Z" fill="#D6E7F2"/>
<path d="M228.781 244.39C228.781 244.39 216.543 239.382 217.206 229.841C217.58 224.518 222.144 230.318 227.086 233.569C234.361 238.356 238.961 240.493 244.182 252.838L233.155 252.786L228.781 244.39Z" fill="#FFAF99"/>
<path d="M241.26 227.822L230.48 220.797L202.186 264.226L202.207 264.236C201.732 264.954 201.406 265.76 201.248 266.606C201.09 267.452 201.103 268.321 201.288 269.162C201.472 270.003 201.824 270.798 202.322 271.5C202.819 272.202 203.453 272.797 204.185 273.25C204.917 273.702 205.733 274.003 206.584 274.134C207.434 274.266 208.303 274.224 209.137 274.014C209.972 273.803 210.755 273.426 211.441 272.907C212.128 272.387 212.702 271.735 213.132 270.989L241.26 227.822Z" fill="#95B3C6"/>
<path d="M244.229 252.773C246.375 254.498 270.996 266.308 270.996 266.308C280.521 271.093 305.062 279.752 305.062 279.752C305.062 279.752 286.758 240.263 286.758 219.594C286.758 204.63 327.142 205.537 327.142 205.537C327.142 205.537 342.265 285.339 343.102 302.634C343.46 310.056 333.649 325.771 326.146 324.916C299.614 321.904 234.652 274.385 230.459 272.5C228.517 271.629 205.206 272.457 201.956 260.236C197.357 251.93 213.617 233.614 219.478 237.367C218.186 239.182 217.569 243.386 220.909 245.596C224.312 247.844 228.317 247.385 229.957 244.861" fill="#FFAF99"/>
<path d="M247.915 240.057C243.57 246.974 232.575 247.891 223.357 242.099C214.14 236.308 210.188 226.007 214.532 219.088C218.875 212.17 229.871 211.254 239.092 217.045C248.313 222.837 252.261 233.138 247.915 240.057Z" fill="#AFC8D8"/>
<path d="M214.535 219.088L221.175 208.329L254.051 229.572L247.147 241.122L221.534 232.856L214.535 219.088Z" fill="#AFC8D8"/>
<path d="M253.774 230.016C249.432 236.933 238.481 237.879 229.315 232.122C220.149 226.366 216.247 216.09 220.593 209.172C224.938 202.254 235.888 201.31 245.055 207.067C254.223 212.824 258.119 223.097 253.774 230.016Z" fill="#D6E7F2"/>
<path d="M295.473 256.227C292.73 248.25 293.377 237.192 299.625 236.823C305.873 236.455 323.511 234.251 329.945 219.917L329.027 216.427L287.477 227.686C287.477 227.686 290.774 248.061 295.473 256.227Z" fill="#F29A86"/>
<path d="M299.731 147.946C310.908 159.501 324.136 178.646 329.623 213.236C329.716 226.262 295.304 233.7 287.477 227.686C284.604 216.446 278.701 181.246 278.701 181.246L299.731 147.946Z" fill="#153556"/>
<path d="M202.587 250.976C202.037 255.755 206.263 262.921 213.062 264.024C210.238 262.481 207.728 260.423 205.662 257.955C204.044 255.938 202.983 253.531 202.587 250.976Z" fill="#F29A86"/>
<path d="M205.481 246.014C204.93 250.792 209.159 257.96 215.957 259.062C213.132 257.519 210.622 255.461 208.557 252.993C206.938 250.976 205.878 248.569 205.481 246.014Z" fill="#F29A86"/>
<path d="M112.765 397.126C110.559 401.397 111.973 409.598 117.94 413.039C115.844 410.596 114.226 407.781 113.17 404.741C112.369 402.282 112.23 399.656 112.765 397.126Z" fill="#F29A86"/>
<path d="M106.469 397.965C104.262 402.239 106.809 409.248 112.776 412.688C110.356 410.87 108.532 408.371 107.538 405.511C106.759 403.074 106.398 400.522 106.469 397.965Z" fill="#F29A86"/>
<path d="M101.956 399.034C101.645 402.272 101.768 407.718 107.632 411.326C105.45 409.718 103.886 407.41 103.201 404.787C102.616 402.91 102.2 400.985 101.956 399.034Z" fill="#F29A86"/>
<path d="M209.48 241.535C208.929 246.312 213.157 253.479 219.956 254.582C217.131 253.04 214.62 250.982 212.555 248.513C210.937 246.496 209.877 244.09 209.48 241.535Z" fill="#F29A86"/>
<g style="mix-blend-mode:color-burn">
<path d="M243.678 220.161L242.509 221.499L232.4 212.666C232.413 212.86 232.4 213.117 232.36 213.437C232.32 213.746 232.255 214.084 232.167 214.448C232.084 214.807 231.978 215.175 231.85 215.552C231.726 215.924 231.583 216.269 231.42 216.587L230.066 215.403C230.241 215.038 230.403 214.633 230.553 214.188C230.701 213.733 230.829 213.274 230.936 212.811C231.042 212.338 231.127 211.879 231.189 211.435C231.246 210.985 231.274 210.579 231.276 210.215L231.718 209.71L243.678 220.161Z" fill="#919191"/>
</g>
<path d="M258.456 61.9579C258.456 61.9579 260.847 64.6233 260.484 66.0938C260.12 67.5643 257.636 69.5857 257.636 69.5857L258.456 61.9579Z" fill="#FFAF99"/>
<path d="M192.246 61.9579C192.246 61.9579 189.855 64.6233 190.224 66.0902C190.594 67.5571 193.073 69.5821 193.073 69.5821L192.246 61.9579Z" fill="#FFAF99"/>
<path d="M225.239 25.7686C229.939 25.7686 233.891 23.7722 238.857 22.5486C247.731 20.3518 252.008 29.8782 252.008 29.8782C257.094 38.2336 256.009 64.4242 256.073 65.9352C256.138 67.4462 258.171 67.6454 258.22 65.9352C258.22 65.9352 261.679 46.0665 261.347 35.4489C260.902 21.3846 256.052 3.81645 237.972 7.61725C224.216 -7.86861 203.972 6.02275 190.745 0.342414C190.03 0.0335318 189.185 0.970912 189.447 1.78307C193.119 13.232 193.833 18.7072 191.506 33.6254C189.395 47.19 192.231 62.0378 192.231 65.4832C192.231 67.4641 194.448 67.2101 194.448 65.4116C194.448 62.6222 193.626 35.1579 198.843 27.3798C205.153 17.9749 220.682 25.7686 225.239 25.7686Z" fill="#0E263F"/>
<path d="M290.819 364.114L295.125 458.095" stroke="white" stroke-miterlimit="10"/>
<path d="M286.842 364.777L291.04 458.095" stroke="white" stroke-miterlimit="10"/>
<path d="M158.956 362.707L154.238 458.095" stroke="white" stroke-miterlimit="10"/>
<path d="M162.683 363.286L158.324 458.095" stroke="white" stroke-miterlimit="10"/>
<path style="mix-blend-mode:multiply" d="M325.276 341.806H124.942V447.605H325.276V341.806Z" fill="url(#paint0_linear)"/>
<path d="M122.865 368.218C132.716 379.056 128.197 391.473 128.507 400.179C128.723 406.092 131.312 413.004 126.571 410.562C118.069 406.176 121.064 391.657 121.064 391.657C120.147 392.097 119.376 392.793 118.843 393.66C118.31 394.527 118.039 395.529 118.06 396.547C117.841 402.946 119.191 409.492 122.367 409.254C122.568 416.208 106.368 412.187 103.35 408.993C96.2048 401.429 97.5871 377.866 97.8387 375.758C98.3873 371.192 99.7468 358.24 99.7468 358.24C102.216 336.633 109.73 274.587 114.047 253.587C119.521 226.969 130.346 195.279 130.346 195.279L162.687 192.03L160.321 226.973C160.321 226.973 159.587 244.918 138.974 275.006C138.263 303.721 119.518 350.77 122.865 368.218Z" fill="#FFAF99"/>
<path d="M98.8428 367.31C100.031 367.735 101.33 367.735 102.518 367.31C104.356 366.575 107.1 364.674 107.612 362.868L122.368 363.266L122.55 361.797L106.469 360.234L102.978 363.081L98.9919 365.326L98.8428 367.31Z" fill="#F29A86"/>
<path d="M122.599 361.571L105.537 360.367L106.102 353.014L123.163 354.223L122.599 361.571Z" fill="#153556"/>
<path d="M123.823 357.97C123.667 359.997 123.119 361.614 122.599 361.574C122.079 361.533 121.786 359.853 121.94 357.827C122.094 355.8 122.645 354.18 123.163 354.221C123.682 354.263 123.979 355.94 123.823 357.97Z" fill="#153556"/>
<g style="mix-blend-mode:multiply" opacity="0.5">
<path d="M108.762 353.2L106.102 353.014L105.538 360.367L107.992 360.542C108.512 359.271 108.83 357.926 108.936 356.556C109.018 355.435 108.959 354.307 108.762 353.2Z" fill="#153556"/>
</g>
<path d="M105.837 356.451C105.436 361.688 102.217 365.71 98.6509 365.436C95.085 365.163 92.5173 360.692 92.9192 355.456C93.3211 350.219 96.5423 346.196 100.109 346.472C103.676 346.747 106.242 351.212 105.837 356.451Z" fill="#153556"/>
<path d="M107.213 356.556C106.811 361.793 103.591 365.817 100.025 365.543C96.4589 365.268 93.8924 360.8 94.3003 355.563C94.7081 350.326 97.9222 346.303 101.489 346.577C105.056 346.851 107.613 351.32 107.213 356.556Z" fill="#153556"/>
<path d="M103.916 356.301C103.591 360.537 100.987 363.788 98.1048 363.568C95.2223 363.347 93.1448 359.734 93.4703 355.5C93.7959 351.266 96.3994 348.012 99.2819 348.235C102.164 348.458 104.241 352.075 103.916 356.301Z" fill="#D6E7F2"/>
<path d="M99.7922 355.984C99.6968 357.224 99.0086 358.182 98.2585 358.131C97.5084 358.079 96.9741 357.022 97.0659 355.783C97.1577 354.543 97.8471 353.583 98.6008 353.636C99.3545 353.688 99.8864 354.747 99.7922 355.984Z" fill="#153556"/>
<path d="M98.4302 355.88L96.5065 351.334" stroke="#153556" stroke-width="0.5" stroke-linecap="round" stroke-linejoin="round"/>
<path d="M98.4303 355.88L101.223 357.131" stroke="#153556" stroke-width="0.5" stroke-linecap="round" stroke-linejoin="round"/>
<g style="mix-blend-mode:soft-light">
<path d="M95.8555 363.22L102.288 348.747C101.53 347.974 100.507 347.515 99.4247 347.464C98.3425 347.413 97.2809 347.773 96.453 348.472C92.9611 350.857 92.8549 356.066 93.2843 358.579C93.7103 360.328 94.5983 361.931 95.8555 363.22Z" fill="white"/>
</g>
<path d="M151.678 252.997C154.802 247.117 133.67 245.096 127.971 236.642C124.577 231.659 122.782 225.761 122.825 219.732L157.559 239.215C157.559 239.215 154.17 247.695 151.678 252.997Z" fill="#F29A86"/>
<path d="M163.089 144.57C152.07 152.817 138.065 166.32 123.434 213.502C116.532 235.763 157.315 242.169 158.984 238.518C160.654 234.868 169.17 208.471 169.17 208.471" fill="#153556"/>
<path opacity="0.8" d="M242.715 400.921C246.878 389.014 240.599 375.986 228.692 371.824C216.784 367.661 203.757 373.94 199.594 385.847C195.432 397.755 201.71 410.782 213.618 414.945C225.525 419.107 238.553 412.829 242.715 400.921Z" fill="white"/>
<path d="M224.381 384.487V402.266" stroke="#153556" stroke-width="3" stroke-miterlimit="10" stroke-linecap="round"/>
<path d="M217.926 384.487V402.266" stroke="#153556" stroke-width="3" stroke-miterlimit="10" stroke-linecap="round"/>
<path opacity="0.8" d="M280.648 393.377C280.648 395.783 279.935 398.134 278.598 400.135C277.261 402.135 275.362 403.694 273.139 404.615C270.916 405.536 268.47 405.777 266.111 405.307C263.751 404.838 261.583 403.679 259.882 401.978C258.181 400.277 257.022 398.109 256.553 395.75C256.084 393.39 256.324 390.944 257.245 388.721C258.166 386.499 259.725 384.599 261.725 383.262C263.726 381.926 266.078 381.212 268.484 381.212C271.71 381.212 274.804 382.494 277.085 384.775C279.367 387.056 280.648 390.15 280.648 393.377Z" fill="white"/>
<path d="M271.184 397.751C271.134 397.751 271.085 397.742 271.04 397.723C270.994 397.704 270.953 397.677 270.918 397.642C270.883 397.607 270.855 397.566 270.837 397.52C270.818 397.475 270.808 397.426 270.808 397.377V389.374C270.808 389.274 270.848 389.178 270.918 389.108C270.989 389.037 271.085 388.997 271.185 388.997C271.285 388.997 271.381 389.037 271.451 389.108C271.522 389.178 271.562 389.274 271.562 389.374V397.377C271.562 397.426 271.552 397.475 271.533 397.521C271.514 397.566 271.486 397.608 271.451 397.643C271.416 397.678 271.374 397.705 271.328 397.724C271.282 397.742 271.233 397.752 271.184 397.751Z" fill="#153556"/>
<path d="M271.184 393.377L265.779 397.229V389.522L271.184 393.377Z" fill="#153556"/>
<path d="M265.779 397.602C265.719 397.603 265.66 397.589 265.606 397.562C265.545 397.53 265.493 397.482 265.457 397.423C265.422 397.364 265.403 397.297 265.403 397.228V389.521C265.403 389.452 265.421 389.383 265.457 389.324C265.493 389.264 265.545 389.216 265.607 389.184C265.669 389.153 265.738 389.139 265.808 389.144C265.877 389.15 265.943 389.175 266 389.216L271.406 393.069C271.455 393.104 271.494 393.149 271.522 393.203C271.55 393.256 271.564 393.315 271.564 393.375C271.564 393.434 271.55 393.493 271.522 393.547C271.494 393.6 271.455 393.645 271.406 393.68L266 397.532C265.936 397.579 265.858 397.604 265.779 397.602ZM266.155 390.251V396.499L270.537 393.376L266.155 390.251Z" fill="#153556"/>
<path opacity="0.8" d="M161.705 393.377C161.705 390.971 162.418 388.619 163.755 386.618C165.091 384.618 166.991 383.059 169.214 382.138C171.437 381.217 173.883 380.977 176.242 381.446C178.602 381.915 180.769 383.074 182.471 384.775C184.172 386.476 185.33 388.644 185.8 391.003C186.269 393.363 186.028 395.809 185.108 398.032C184.187 400.255 182.628 402.154 180.627 403.491C178.627 404.828 176.275 405.541 173.869 405.541C170.643 405.541 167.549 404.259 165.268 401.978C162.986 399.697 161.705 396.603 161.705 393.377Z" fill="white"/>
<path d="M171.167 389.002C171.217 389.002 171.266 389.011 171.311 389.03C171.357 389.049 171.398 389.076 171.433 389.111C171.468 389.146 171.496 389.187 171.515 389.233C171.534 389.278 171.543 389.327 171.543 389.377V397.379C171.543 397.479 171.504 397.574 171.433 397.645C171.363 397.715 171.267 397.755 171.167 397.755C171.068 397.755 170.972 397.715 170.902 397.645C170.831 397.574 170.792 397.479 170.792 397.379V389.377C170.792 389.327 170.801 389.278 170.82 389.233C170.839 389.187 170.867 389.146 170.902 389.111C170.936 389.076 170.978 389.049 171.024 389.03C171.069 389.011 171.118 389.002 171.167 389.002Z" fill="#153556"/>
<path d="M171.168 393.377L176.574 389.522V397.228L171.168 393.377Z" fill="#153556"/>
<path d="M176.574 389.15C176.634 389.15 176.693 389.164 176.747 389.191C176.808 389.223 176.859 389.271 176.895 389.33C176.93 389.388 176.949 389.456 176.948 389.525V397.23C176.949 397.3 176.93 397.368 176.894 397.428C176.858 397.487 176.806 397.535 176.745 397.567C176.683 397.599 176.613 397.613 176.544 397.607C176.474 397.601 176.408 397.577 176.352 397.535L170.947 393.682C170.898 393.648 170.859 393.602 170.831 393.549C170.804 393.496 170.79 393.437 170.79 393.377C170.79 393.317 170.804 393.258 170.831 393.205C170.859 393.152 170.898 393.106 170.947 393.072L176.352 389.22C176.417 389.173 176.494 389.149 176.574 389.15ZM176.198 396.501V390.254L171.815 393.376L176.198 396.501Z" fill="#153556"/>
<path opacity="0.5" d="M140.512 426.615H301.752" stroke="#D6E7F2" stroke-miterlimit="10"/>
<path d="M140.512 426.615H176.458" stroke="#C7DAEA" stroke-miterlimit="10"/>
<path d="M179.662 426.612C179.662 427.246 179.474 427.865 179.122 428.392C178.77 428.918 178.269 429.329 177.684 429.571C177.099 429.814 176.455 429.877 175.833 429.754C175.212 429.63 174.641 429.325 174.193 428.877C173.745 428.429 173.44 427.858 173.316 427.237C173.193 426.616 173.256 425.971 173.499 425.386C173.741 424.801 174.152 424.301 174.679 423.949C175.205 423.597 175.825 423.409 176.458 423.409C176.879 423.409 177.296 423.491 177.684 423.652C178.073 423.813 178.426 424.049 178.724 424.347C179.021 424.644 179.257 424.997 179.418 425.386C179.579 425.775 179.662 426.191 179.662 426.612Z" fill="#C7DAEA"/>
<path d="M316.724 97.8621H301.199C301.14 97.8624 301.084 97.8859 301.043 97.9274C301.002 97.969 300.978 98.0253 300.978 98.0839V100.37H299.752C299.724 100.37 299.695 100.375 299.668 100.386C299.642 100.397 299.618 100.413 299.597 100.434C299.577 100.454 299.561 100.478 299.55 100.505C299.539 100.531 299.533 100.56 299.533 100.588V104.506C299.533 104.535 299.538 104.564 299.549 104.591C299.56 104.617 299.576 104.642 299.596 104.662C299.617 104.683 299.641 104.699 299.668 104.71C299.695 104.721 299.723 104.727 299.752 104.727H300.978V107.014C300.979 107.072 301.002 107.128 301.043 107.169C301.085 107.21 301.141 107.233 301.199 107.233H316.724C316.782 107.233 316.837 107.209 316.878 107.168C316.919 107.127 316.942 107.072 316.942 107.014V98.0839C316.942 98.0257 316.92 97.9698 316.879 97.9283C316.838 97.8868 316.782 97.863 316.724 97.8621ZM314.577 104.821H309.711V100.276H314.579L314.577 104.821Z" fill="white"/>
<path d="M295.079 102.653H295.063C295.323 102.143 295.447 101.575 295.424 101.003C295.401 100.431 295.232 99.8749 294.933 99.3871C294.634 98.8993 294.215 98.4963 293.716 98.2168C293.216 97.9373 292.654 97.7905 292.082 97.7905C291.509 97.7905 290.947 97.9373 290.447 98.2168C289.948 98.4963 289.529 98.8993 289.23 99.3871C288.931 99.8749 288.762 100.431 288.739 101.003C288.716 101.575 288.841 102.143 289.1 102.653H289.082C289.082 102.653 289.133 102.733 289.215 102.865C289.257 102.943 289.303 103.018 289.352 103.094C289.973 104.104 291.472 106.553 291.709 106.946C292.01 107.437 292.221 107.313 292.431 106.975C292.598 106.705 294.17 104.133 294.808 103.093C294.857 103.019 294.902 102.943 294.944 102.865L295.079 102.653ZM292.083 99.4948C292.413 99.4948 292.736 99.5927 293.01 99.7762C293.285 99.9596 293.499 100.22 293.625 100.525C293.752 100.831 293.785 101.166 293.72 101.49C293.656 101.814 293.497 102.112 293.263 102.345C293.03 102.579 292.732 102.738 292.408 102.802C292.085 102.866 291.749 102.833 291.444 102.707C291.139 102.581 290.878 102.367 290.694 102.092C290.511 101.817 290.413 101.495 290.413 101.164C290.413 100.722 290.589 100.297 290.902 99.9838C291.215 99.6707 291.64 99.4948 292.083 99.4948Z" fill="white"/>
<path d="M277.119 102.839H276.129V106.512H277.119V102.839Z" fill="white" stroke="white" stroke-linecap="round" stroke-linejoin="round"/>
<path d="M280.404 100.363H279.409V106.512H280.404V100.363Z" fill="white" stroke="white" stroke-linecap="round" stroke-linejoin="round"/>
<path d="M283.731 97.985H282.736V106.512H283.731V97.985Z" fill="white" stroke="white" stroke-linecap="round" stroke-linejoin="round"/>
<path d="M153.821 117.947C154.546 117.613 155.159 117.079 155.589 116.408C156.02 115.737 156.249 114.957 156.25 114.16C156.248 113.42 156.051 112.694 155.676 112.056C155.302 111.417 154.765 110.89 154.12 110.528C153.58 108.641 152.423 106.99 150.835 105.838C149.246 104.687 147.318 104.101 145.357 104.174C143.396 104.248 141.517 104.976 140.019 106.244C138.521 107.511 137.491 109.244 137.094 111.166C136.497 111.742 136.085 112.483 135.912 113.295C135.738 114.107 135.812 114.952 136.122 115.722C136.433 116.492 136.967 117.151 137.655 117.616C138.343 118.08 139.154 118.328 139.984 118.328C140.022 118.328 140.061 118.321 140.096 118.306C140.132 118.292 140.165 118.27 140.192 118.243C140.219 118.216 140.241 118.183 140.256 118.147C140.271 118.112 140.278 118.074 140.278 118.035V110.283C140.278 110.244 140.271 110.206 140.256 110.171C140.241 110.135 140.219 110.103 140.192 110.076C140.165 110.048 140.132 110.027 140.096 110.012C140.061 109.998 140.022 109.991 139.984 109.991C139.791 109.991 139.598 110.005 139.407 110.034C139.98 108.864 140.871 107.878 141.977 107.189C143.084 106.5 144.361 106.135 145.664 106.136C146.968 106.137 148.245 106.503 149.35 107.194C150.455 107.884 151.345 108.871 151.917 110.042C151.879 110.069 151.847 110.105 151.825 110.146C151.804 110.188 151.792 110.234 151.792 110.281V118.033C151.791 118.071 151.799 118.109 151.813 118.145C151.828 118.181 151.849 118.213 151.876 118.24C151.904 118.268 151.936 118.289 151.972 118.304C152.007 118.319 152.045 118.326 152.084 118.326C152.179 118.326 152.273 118.326 152.37 118.314C152.865 118.243 153.352 118.12 153.821 117.947Z" fill="white"/>
<path d="M145.515 18.0095H101.501C96.2712 18.0253 91.2598 20.1099 87.5617 23.8083C83.8636 27.5066 81.7792 32.5181 81.7638 37.7482V57.7134C81.7795 62.9433 83.8641 67.9544 87.5621 71.6525C91.2602 75.3506 96.2714 77.4351 101.501 77.4509H134.357L140.617 85.5498C140.915 85.9345 141.306 86.2358 141.754 86.4248C142.202 86.6137 142.692 86.6838 143.175 86.6283C143.658 86.5727 144.118 86.3935 144.512 86.1078C144.905 85.8221 145.219 85.4397 145.421 84.9976L149.032 77.1169C153.574 76.2823 157.682 73.886 160.644 70.3425C163.606 66.7991 165.236 62.3317 165.251 57.7134V37.7482C165.236 32.5183 163.152 27.507 159.454 23.8087C155.756 20.1104 150.745 18.0256 145.515 18.0095ZM101.501 53.8578C100.425 53.8573 99.3721 53.5376 98.477 52.9391C97.5819 52.3407 96.8843 51.4902 96.4724 50.4954C96.0605 49.5006 95.9528 48.4059 96.1629 47.3499C96.373 46.2938 96.8915 45.3238 97.6527 44.5623C98.414 43.8009 99.384 43.2822 100.44 43.0719C101.496 42.8615 102.591 42.969 103.586 43.3807C104.581 43.7923 105.431 44.4897 106.03 45.3847C106.628 46.2797 106.948 47.332 106.949 48.4088C106.949 49.1244 106.809 49.8331 106.535 50.4943C106.262 51.1555 105.86 51.7564 105.355 52.2624C104.849 52.7685 104.248 53.1699 103.587 53.4436C102.926 53.7173 102.217 53.8581 101.501 53.8578ZM123.622 53.8578C122.545 53.8578 121.492 53.5385 120.597 52.9403C119.701 52.3421 119.003 51.4919 118.591 50.497C118.179 49.5022 118.071 48.4075 118.281 47.3513C118.49 46.2951 119.009 45.3249 119.77 44.5632C120.531 43.8015 121.501 43.2826 122.557 43.072C123.613 42.8615 124.708 42.9689 125.703 43.3805C126.698 43.7921 127.549 44.4894 128.147 45.3845C128.746 46.2795 129.066 47.3319 129.067 48.4088C129.067 49.8533 128.493 51.2388 127.472 52.2605C126.451 53.2823 125.066 53.8568 123.622 53.8578ZM145.744 53.8578C144.667 53.8587 143.614 53.5402 142.718 52.9426C141.822 52.345 141.123 51.4951 140.71 50.5004C140.297 49.5056 140.189 48.4108 140.398 47.3543C140.607 46.2977 141.125 45.327 141.886 44.5648C142.647 43.8027 143.617 43.2833 144.673 43.0724C145.729 42.8615 146.824 42.9685 147.82 43.38C148.815 43.7915 149.666 44.4888 150.265 45.384C150.864 46.2791 151.184 47.3317 151.185 48.4088C151.185 49.8527 150.613 51.2378 149.592 52.2595C148.572 53.2813 147.188 53.8562 145.744 53.8578Z" fill="#4E71E0"/>
<defs>
<linearGradient id="paint0_linear" x1="225.109" y1="447.605" x2="225.109" y2="341.806" gradientUnits="userSpaceOnUse">
<stop stop-color="#153556"/>
<stop offset="1" stop-color="white"/>
</linearGradient>
</defs>
</svg>
