<svg width="481" height="425" viewBox="0 0 481 425" fill="none" xmlns="http://www.w3.org/2000/svg">
<path d="M240.5 424.267C373.324 424.267 481 355.771 481 271.277C481 186.782 373.324 118.286 240.5 118.286C107.676 118.286 0 186.782 0 271.277C0 355.771 107.676 424.267 240.5 424.267Z" fill="#F5F5F5"/>
<path d="M81.5292 330.725C87.478 331.995 93.7192 331.662 99.6952 332.958C103.776 333.975 107.767 335.375 111.623 337.143C115.114 338.619 118.602 340.103 122.087 341.595C122.781 341.893 131.128 345.012 131.128 345.443C145.254 351.14 159.587 359.335 175.125 358.351C176.963 358.235 178.761 357.723 180.414 356.846C182.067 355.969 183.543 354.743 184.753 353.242C185.964 351.74 186.887 349.992 187.467 348.1C188.047 346.208 188.273 344.21 188.131 342.222C187.903 339.016 186.726 335.853 187.159 332.67C188.322 324.131 195.557 325.014 201.376 326.472C204.771 327.323 208.124 328.362 211.441 329.518C220.172 332.562 229.369 335.401 236.31 342.24C240.779 346.643 245.082 348.388 251.123 349.118C255.333 349.63 259.48 349.915 263.515 351.429C267.494 352.923 270.953 355.796 274.636 358.003C279.68 360.925 285.371 362.285 291.084 361.933C296.796 361.582 302.308 359.532 307.014 356.009C308.574 354.808 310.178 353.042 309.872 350.994C309.134 346.06 301.503 345.054 298.265 342.976C292.417 339.219 286.543 335.517 280.643 331.87C268.821 324.602 256.858 317.612 244.756 310.899C231.824 303.727 218.71 296.863 205.049 291.503C198.318 288.861 190.646 286.637 184.212 290.039C179.024 292.782 176.977 297.986 173.608 302.615C170.477 306.919 166.412 311.367 161.805 313.785C158.135 315.712 153.966 316.159 149.892 316.358C136.375 317.013 122.843 315.25 109.539 312.58C103.905 311.45 98.2201 310.152 92.4991 310.53C86.3679 310.935 76.3245 312.642 72.9771 319.046C72.3976 320.03 72.0098 321.132 71.8377 322.284C71.7894 323.234 71.9448 324.183 72.2919 325.057C72.6389 325.93 73.1682 326.705 73.8381 327.32C75.1903 328.538 76.7739 329.419 78.4762 329.898C79.4804 330.229 80.4993 330.505 81.5292 330.725Z" fill="#E0E0E0"/>
<path d="M387.004 276.639C399.027 276.639 408.773 270.546 408.773 263.03C408.773 255.514 399.027 249.421 387.004 249.421C374.981 249.421 365.234 255.514 365.234 263.03C365.234 270.546 374.981 276.639 387.004 276.639Z" fill="#E0E0E0"/>
<path d="M370.148 349.608L366.593 347.386C364.181 345.878 364.182 343.434 366.593 341.927L374.514 336.975L345.845 319.051L337.924 324.004C336.571 324.747 335.075 325.134 333.558 325.134C332.04 325.134 330.544 324.747 329.191 324.004L325.636 321.781C323.225 320.274 323.225 317.83 325.636 316.322L349.671 301.299C351.024 300.556 352.52 300.169 354.037 300.169C355.554 300.169 357.05 300.556 358.403 301.299L361.959 303.522C364.37 305.03 364.37 307.473 361.959 308.981L353.211 314.45L381.881 332.373L390.628 326.905C391.981 326.161 393.477 325.774 394.994 325.774C396.511 325.774 398.007 326.161 399.36 326.905L402.915 329.128C405.327 330.635 405.327 333.08 402.915 334.587L378.882 349.611C377.528 350.354 376.032 350.741 374.515 350.741C372.997 350.74 371.501 350.352 370.148 349.608Z" fill="#E0E0E0"/>
<path d="M431.005 197.502L421.399 191.497C421.399 191.497 419.047 169.225 420.613 151.975C422.812 127.738 437.269 98.5691 454.516 105.418C471.762 112.266 446.608 136.954 441.005 157.514C435.402 178.074 431.005 197.502 431.005 197.502Z" fill="#4E71E0"/>
<path opacity="0.15" d="M431.005 197.502L421.399 191.497C421.399 191.497 419.047 169.225 420.613 151.975C422.812 127.738 437.269 98.5691 454.516 105.418C471.762 112.266 446.608 136.954 441.005 157.514C435.402 178.074 431.005 197.502 431.005 197.502Z" fill="black"/>
<path d="M425.954 194.974H425.973C426.05 194.971 426.126 194.952 426.196 194.918C426.266 194.883 426.328 194.834 426.381 194.773C426.433 194.712 426.473 194.641 426.5 194.563C426.526 194.485 426.538 194.402 426.535 194.319C424.848 140.458 449.609 113.365 449.859 113.098C449.917 113.041 449.963 112.972 449.995 112.895C450.028 112.818 450.045 112.735 450.047 112.65C450.049 112.566 450.035 112.482 450.007 112.403C449.978 112.324 449.935 112.253 449.88 112.193C449.825 112.132 449.76 112.085 449.688 112.052C449.616 112.02 449.538 112.004 449.46 112.005C449.382 112.005 449.305 112.023 449.233 112.057C449.162 112.091 449.097 112.14 449.044 112.201C448.788 112.473 423.668 139.955 425.372 194.361C425.377 194.525 425.44 194.681 425.548 194.795C425.657 194.91 425.803 194.974 425.954 194.974Z" fill="white"/>
<path d="M437.044 201.247L430.21 196.974C430.21 196.974 429.046 181.689 435.967 163.12C441.992 146.955 456.939 133.545 464.461 136.363C471.982 139.181 471.792 144.955 468.127 151.01C464.462 157.065 442.159 171.502 437.044 201.247Z" fill="#4E71E0"/>
<path d="M433.439 199.622C433.515 199.622 433.591 199.606 433.661 199.574C433.732 199.542 433.796 199.495 433.85 199.436C433.903 199.378 433.946 199.308 433.975 199.232C434.004 199.155 434.018 199.073 434.018 198.99C433.883 164.936 463.413 141.919 463.711 141.69C463.837 141.593 463.922 141.447 463.948 141.282C463.974 141.118 463.939 140.949 463.85 140.813C463.761 140.676 463.626 140.584 463.474 140.556C463.322 140.528 463.166 140.566 463.04 140.662C462.737 140.895 432.717 164.293 432.855 198.996C432.856 199.163 432.918 199.322 433.027 199.44C433.137 199.557 433.285 199.623 433.439 199.622Z" fill="white"/>
<path d="M64.137 187.877L72.2365 182.81C72.2365 182.81 77.057 161.123 75.1352 141.609C72.4351 114.172 55.7563 103.848 49.4143 106.215C43.0723 108.582 41.2353 116.565 51.7333 132.905C57.9211 142.547 65.5264 162.628 64.137 187.877Z" fill="#4E71E0"/>
<g opacity="0.15">
<path opacity="0.15" d="M64.137 187.877L72.2365 182.81C72.2365 182.81 77.057 161.123 75.1352 141.609C72.4351 114.172 55.7563 103.848 49.4143 106.215C43.0723 108.582 41.2353 116.565 51.7333 132.905C57.9211 142.547 65.5264 162.628 64.137 187.877Z" fill="black"/>
</g>
<path d="M67.4934 177.224C67.4673 177.222 67.4414 177.218 67.4157 177.213C67.2694 177.182 67.1402 177.091 67.0562 176.957C66.9723 176.824 66.9406 176.66 66.9681 176.502C71.4045 151.196 63.2435 122.759 53.1346 110.927C53.0364 110.808 52.9853 110.652 52.9923 110.493C52.9993 110.333 53.0639 110.183 53.1721 110.075C53.2803 109.967 53.4235 109.909 53.5708 109.914C53.7181 109.919 53.8576 109.986 53.9594 110.101C64.2538 122.149 72.5771 151.051 68.0752 176.729C68.0497 176.874 67.9768 177.003 67.8699 177.094C67.7629 177.185 67.6292 177.231 67.4934 177.224Z" fill="white"/>
<path d="M42.9219 201.144C41.6424 201.85 38.2405 198.697 37.2917 197.929C35.667 196.596 34.3865 194.833 33.5732 192.809C32.6637 190.512 32.4361 187.965 32.9219 185.522C33.1819 184.232 33.5242 182.962 33.9463 181.723L35.1108 178.045C35.5692 176.862 35.8007 175.59 35.7914 174.307C35.6089 171.739 33.5995 169.831 31.7684 168.194C29.7448 166.372 27.6587 164.001 27.814 160.929C28.0783 158.552 29.063 156.337 30.614 154.63C32.0578 152.843 33.7396 151.287 35.0624 149.39C36.0907 148.074 36.6733 146.418 36.714 144.695C36.6322 143.634 36.3527 142.601 35.8923 141.659C34.9848 139.603 33.7457 137.698 33.1548 135.511C32.564 133.325 32.7868 130.655 34.4081 129.201C35.739 128.008 37.6345 127.936 39.3486 128.152C40.9504 128.454 42.4724 129.13 43.8092 130.132C48.1891 133.091 50.492 139.009 55.1764 141.359C57.0444 142.103 58.9534 142.72 60.8922 143.206C62.7888 143.861 64.6995 145.032 65.5 147.006C67.079 150.898 63.6035 155.398 64.6501 159.495C65.5756 163.121 68.7113 164.661 70.3589 167.972C71.0259 169.428 71.2457 171.077 70.986 172.679C70.703 175.397 69.9624 178.037 68.8011 180.467C67.4961 182.963 66.0513 185.369 64.4746 187.673C64.4746 187.673 43.1175 201.036 42.9219 201.144Z" fill="#4E71E0"/>
<path d="M55.3186 194.148H55.3034C55.2293 194.142 55.1571 194.12 55.091 194.083C55.0249 194.046 54.9661 193.995 54.9181 193.934C54.8702 193.872 54.8339 193.801 54.8114 193.724C54.7889 193.648 54.7807 193.567 54.7872 193.487C56.837 169.416 47.5821 142.215 40.3105 134.061C40.2577 134.004 40.2159 133.937 40.1876 133.862C40.1592 133.787 40.1449 133.707 40.1455 133.626C40.146 133.546 40.1614 133.466 40.1907 133.392C40.22 133.317 40.2627 133.25 40.3163 133.194C40.3698 133.138 40.4332 133.094 40.5027 133.064C40.5721 133.035 40.6463 133.021 40.7208 133.023C40.7954 133.025 40.8688 133.043 40.9368 133.076C41.0049 133.109 41.0662 133.156 41.1171 133.215C48.5359 141.533 57.9834 169.189 55.9054 193.597C55.8918 193.753 55.8232 193.897 55.714 194C55.6047 194.103 55.4631 194.156 55.3186 194.148Z" fill="white"/>
<path d="M53.1105 164.471C53.0543 164.467 52.9989 164.455 52.9462 164.434C47.7424 162.572 42.3669 161.33 36.9147 160.729C36.7663 160.714 36.6294 160.636 36.534 160.512C36.4385 160.388 36.3924 160.228 36.4055 160.068C36.4106 159.987 36.4307 159.909 36.4646 159.838C36.4984 159.767 36.5454 159.703 36.6026 159.652C36.6598 159.601 36.726 159.563 36.7971 159.541C36.8683 159.518 36.943 159.512 37.0165 159.522C42.5661 160.133 48.0374 161.399 53.3333 163.296C53.46 163.346 53.566 163.443 53.6319 163.57C53.6979 163.697 53.7195 163.846 53.6927 163.989C53.6659 164.132 53.5926 164.259 53.4861 164.349C53.3796 164.438 53.247 164.483 53.1125 164.475L53.1105 164.471Z" fill="white"/>
<path d="M355.537 287.133C353.648 280.445 345.927 274.906 338.708 277.1C337.569 277.447 336.477 277.952 335.457 278.602C328.457 282.969 322.783 293.616 322.783 302.372C322.766 303.843 322.957 305.308 323.349 306.717C325.24 313.406 332.959 318.908 340.178 316.719C341.314 316.372 342.404 315.867 343.422 315.218C350.421 310.842 356.096 300.2 356.096 291.448C356.113 289.988 355.924 288.533 355.537 287.133Z" fill="#455A64"/>
<path d="M343.42 315.216C350.419 310.84 356.094 300.198 356.094 291.446C356.094 282.694 350.419 279.143 343.42 283.515C336.42 287.888 330.745 298.53 330.745 307.285C330.745 316.04 336.42 319.592 343.42 315.216Z" fill="#37474F"/>
<path d="M343.42 293.22C346.112 291.537 348.295 292.901 348.295 296.267C348.203 298.099 347.714 299.881 346.867 301.47C346.02 303.058 344.839 304.408 343.42 305.41C340.728 307.093 338.545 305.728 338.545 302.363C338.636 300.531 339.126 298.749 339.973 297.16C340.82 295.572 342.001 294.222 343.42 293.22Z" fill="#455A64"/>
<path d="M345.088 298.275C345.056 298.902 344.888 299.513 344.599 300.057C344.309 300.601 343.905 301.064 343.42 301.408C343.259 301.532 343.073 301.611 342.878 301.639C342.682 301.666 342.483 301.642 342.299 301.568C342.256 301.546 342.215 301.521 342.177 301.491C342.027 301.354 341.909 301.18 341.835 300.983C341.76 300.786 341.73 300.573 341.748 300.361C341.781 299.734 341.949 299.123 342.239 298.578C342.53 298.033 342.934 297.57 343.42 297.226C343.579 297.102 343.764 297.023 343.958 296.995C344.153 296.967 344.351 296.992 344.534 297.066L344.656 297.143C344.808 297.279 344.926 297.454 345.001 297.651C345.077 297.848 345.106 298.063 345.088 298.275Z" fill="#37474F"/>
<path d="M371.864 315.015C371.834 315.642 371.667 316.252 371.377 316.795C371.088 317.339 370.684 317.801 370.198 318.143C369.982 318.295 369.732 318.379 369.474 318.386C369.278 318.383 369.085 318.323 368.917 318.213L342.299 301.57C342.256 301.549 342.215 301.523 342.177 301.493C342.027 301.356 341.909 301.182 341.835 300.985C341.76 300.789 341.73 300.575 341.748 300.363C341.781 299.736 341.949 299.125 342.239 298.58C342.53 298.036 342.934 297.572 343.42 297.228C343.579 297.104 343.764 297.025 343.958 296.997C344.153 296.969 344.351 296.994 344.534 297.069L344.656 297.145L371.274 313.78C371.473 313.901 371.636 314.082 371.74 314.302C371.845 314.521 371.888 314.769 371.864 315.015Z" fill="#FAFAFA"/>
<path d="M397.99 313.667C396.101 306.977 388.38 301.439 381.162 303.632C380.023 303.979 378.93 304.483 377.911 305.133C370.911 309.506 365.237 320.149 365.237 328.905C365.219 330.376 365.41 331.841 365.803 333.249C367.693 339.938 375.412 345.44 382.631 343.251C383.768 342.903 384.858 342.398 385.875 341.749C392.875 337.374 398.55 326.731 398.55 317.978C398.566 316.519 398.378 315.065 397.99 313.667Z" fill="#455A64"/>
<path d="M385.874 341.749C392.873 337.374 398.548 326.731 398.548 317.978C398.548 309.225 392.873 305.676 385.873 310.049C378.872 314.421 373.199 325.063 373.199 333.819C373.199 342.575 378.873 346.125 385.874 341.749Z" fill="#37474F"/>
<path d="M385.868 319.758C388.561 318.074 390.743 319.439 390.743 322.805C390.651 324.636 390.162 326.419 389.315 328.007C388.468 329.596 387.287 330.946 385.868 331.947C383.176 333.631 380.994 332.266 380.994 328.9C381.085 327.069 381.574 325.286 382.421 323.698C383.267 322.109 384.448 320.759 385.868 319.758Z" fill="#455A64"/>
<path d="M387.541 324.808C387.51 325.436 387.343 326.046 387.054 326.591C386.765 327.135 386.361 327.598 385.876 327.943C385.715 328.066 385.529 328.146 385.334 328.174C385.138 328.202 384.939 328.177 384.755 328.103C384.712 328.082 384.672 328.056 384.634 328.027C384.483 327.889 384.366 327.715 384.291 327.518C384.217 327.321 384.187 327.108 384.204 326.896C384.237 326.268 384.405 325.657 384.695 325.113C384.986 324.568 385.39 324.105 385.876 323.761C386.035 323.637 386.22 323.558 386.415 323.53C386.609 323.502 386.807 323.527 386.991 323.602L387.112 323.677C387.263 323.814 387.381 323.988 387.456 324.185C387.531 324.382 387.56 324.596 387.541 324.808Z" fill="#37474F"/>
<path d="M391.577 327.333C391.546 327.959 391.379 328.569 391.09 329.113C390.8 329.657 390.397 330.119 389.911 330.462C389.695 330.612 389.445 330.696 389.188 330.704C388.991 330.701 388.799 330.641 388.631 330.53L384.755 328.103C384.712 328.082 384.672 328.056 384.634 328.027C384.484 327.89 384.366 327.715 384.291 327.518C384.217 327.321 384.187 327.108 384.204 326.896C384.237 326.268 384.405 325.657 384.695 325.113C384.986 324.569 385.39 324.106 385.876 323.761C386.035 323.638 386.221 323.558 386.415 323.53C386.61 323.503 386.807 323.527 386.991 323.602L387.112 323.677L390.988 326.099C391.187 326.22 391.348 326.401 391.453 326.62C391.558 326.839 391.601 327.087 391.577 327.333Z" fill="#FAFAFA"/>
<path d="M391.577 327.322C391.546 327.949 391.379 328.559 391.089 329.104C390.8 329.648 390.396 330.112 389.911 330.456C389.751 330.58 389.565 330.659 389.37 330.687C389.174 330.715 388.976 330.69 388.791 330.616C388.748 330.595 388.708 330.569 388.669 330.54C388.519 330.403 388.402 330.228 388.327 330.031C388.252 329.835 388.222 329.621 388.24 329.409C388.272 328.781 388.44 328.171 388.731 327.626C389.021 327.082 389.426 326.619 389.911 326.275C390.071 326.151 390.256 326.072 390.45 326.044C390.645 326.016 390.843 326.04 391.026 326.114L391.148 326.191C391.299 326.327 391.417 326.502 391.492 326.699C391.567 326.896 391.596 327.11 391.577 327.322Z" fill="#E0E0E0"/>
<path d="M402.327 233.946C401.697 231.487 400.844 229.103 399.78 226.826C399.671 226.567 399.554 226.309 399.433 226.049C398.417 223.916 397.902 221.545 397.933 219.146C397.965 216.746 398.543 214.392 399.615 212.292C399.691 212.147 399.766 212.001 399.84 211.856C401.167 209.403 401.848 206.603 401.808 203.76C401.728 202.204 401.297 200.693 400.553 199.358C399.809 198.024 398.775 196.907 397.54 196.105C396.906 195.702 396.244 195.354 395.559 195.063C394.928 194.795 394.386 194.328 394.003 193.722C393.621 193.116 393.415 192.4 393.413 191.666L393.428 187.474L381.034 187.427L381.019 191.62C381.012 192.354 380.801 193.068 380.413 193.67C380.026 194.273 379.481 194.735 378.848 194.998C378.162 195.283 377.497 195.626 376.86 196.023C375.62 196.814 374.578 197.922 373.824 199.25C373.071 200.578 372.629 202.086 372.537 203.641C372.477 206.484 373.138 209.29 374.447 211.754L374.655 212.165C375.716 214.277 376.281 216.639 376.299 219.043C376.316 221.448 375.786 223.82 374.756 225.949C374.633 226.208 374.515 226.466 374.405 226.724C373.322 228.989 372.451 231.367 371.806 233.82C371.364 236.197 371.161 238.618 371.201 241.042L371.131 260.566C371.122 263.104 372.656 265.64 375.736 267.58C378.496 269.217 381.553 270.183 384.693 270.412C386.182 270.551 387.678 270.557 389.168 270.43C392.289 270.217 395.332 269.277 398.087 267.674C401.181 265.76 402.733 263.237 402.742 260.708L402.794 246.586C402.8 244.827 402.863 242.983 402.87 241.148C402.931 238.733 402.749 236.318 402.327 233.946Z" fill="#4E71E0"/>
<path opacity="0.3" d="M402.327 233.946C401.697 231.487 400.844 229.103 399.78 226.826C399.671 226.567 399.554 226.309 399.433 226.049C398.417 223.916 397.902 221.545 397.933 219.146C397.965 216.746 398.543 214.392 399.615 212.292C399.691 212.147 399.766 212.001 399.84 211.856C401.167 209.403 401.848 206.603 401.808 203.76C401.728 202.204 401.297 200.693 400.553 199.358C399.809 198.024 398.775 196.907 397.54 196.105C396.906 195.702 396.244 195.354 395.559 195.063C394.928 194.795 394.386 194.328 394.003 193.722C393.621 193.116 393.415 192.4 393.413 191.666L393.428 187.474L381.034 187.427L381.019 191.62C381.012 192.354 380.801 193.068 380.413 193.67C380.026 194.273 379.481 194.735 378.848 194.998C378.162 195.283 377.497 195.626 376.86 196.023C375.62 196.814 374.578 197.922 373.824 199.25C373.071 200.578 372.629 202.086 372.537 203.641C372.477 206.484 373.138 209.29 374.447 211.754L374.655 212.165C375.716 214.277 376.281 216.639 376.299 219.043C376.316 221.448 375.786 223.82 374.756 225.949C374.633 226.208 374.515 226.466 374.405 226.724C373.322 228.989 372.451 231.367 371.806 233.82C371.364 236.197 371.161 238.618 371.201 241.042L371.131 260.566C371.122 263.104 372.656 265.64 375.736 267.58C378.496 269.217 381.553 270.183 384.693 270.412C386.182 270.551 387.678 270.557 389.168 270.43C392.289 270.217 395.332 269.277 398.087 267.674C401.181 265.76 402.733 263.237 402.742 260.708L402.794 246.586C402.8 244.827 402.863 242.983 402.87 241.148C402.931 238.733 402.749 236.318 402.327 233.946Z" fill="black"/>
<path opacity="0.1" d="M399.616 212.296C399.692 212.15 399.767 212.005 399.841 211.859C400.968 209.77 401.629 207.423 401.769 205.008C401.483 205.981 401.088 206.912 400.594 207.781C399.068 210.205 397.181 212.337 395.009 214.091C392.886 215.967 390.526 218.102 390.262 221.055C390.007 223.914 391.869 226.514 393.993 228.24C396.116 229.966 398.59 231.188 400.494 233.185C401.309 234.07 402.034 235.05 402.654 236.105C402.573 235.376 402.475 234.652 402.332 233.948C401.702 231.489 400.849 229.105 399.785 226.828C399.676 226.57 399.559 226.311 399.438 226.051C398.421 223.919 397.905 221.549 397.936 219.149C397.967 216.75 398.544 214.396 399.616 212.296Z" fill="black"/>
<path d="M378.941 192.102L378.933 194.359C378.92 195.703 379.74 197.06 381.387 198.103C383.228 199.122 385.266 199.658 387.334 199.667C389.402 199.676 391.443 199.157 393.292 198.153C394.018 197.727 394.65 197.135 395.144 196.418C395.536 195.847 395.753 195.158 395.764 194.447L395.772 192.155C395.776 191.949 395.755 191.743 395.71 191.543C395.542 190.868 395.243 190.24 394.832 189.701C394.421 189.162 393.908 188.725 393.327 188.42C393.288 188.392 393.247 188.368 393.204 188.348C391.373 187.363 389.355 186.852 387.31 186.856C385.266 186.859 383.25 187.378 381.421 188.37C380.839 188.67 380.323 189.102 379.907 189.636C379.491 190.17 379.186 190.794 379.012 191.467C378.963 191.675 378.94 191.888 378.941 192.102Z" fill="#4E71E0"/>
<path opacity="0.1" d="M378.941 192.102L378.933 194.359C378.92 195.703 379.74 197.06 381.387 198.103C383.228 199.122 385.266 199.658 387.334 199.667C389.402 199.676 391.443 199.157 393.292 198.153C394.018 197.727 394.65 197.135 395.144 196.418C395.536 195.847 395.753 195.158 395.764 194.447L395.772 192.155C395.776 191.949 395.755 191.743 395.71 191.543C395.542 190.868 395.243 190.24 394.832 189.701C394.421 189.162 393.908 188.725 393.327 188.42C393.288 188.392 393.247 188.368 393.204 188.348C391.373 187.363 389.355 186.852 387.31 186.856C385.266 186.859 383.25 187.378 381.421 188.37C380.839 188.67 380.323 189.102 379.907 189.636C379.491 190.17 379.186 190.794 379.012 191.467C378.963 191.675 378.94 191.888 378.941 192.102Z" fill="black"/>
<path opacity="0.2" d="M393.296 195.864C396.59 193.823 396.602 190.491 393.322 188.423C391.482 187.403 389.446 186.866 387.379 186.858C385.311 186.849 383.272 187.368 381.424 188.373C378.13 190.413 378.118 193.745 381.397 195.813C383.237 196.833 385.274 197.37 387.341 197.378C389.408 197.387 391.448 196.868 393.296 195.864Z" fill="black"/>
<path d="M378.951 189.471L378.946 190.828C378.942 191.043 378.964 191.257 379.009 191.466C379.179 192.14 379.481 192.766 379.893 193.303C380.306 193.841 380.819 194.276 381.4 194.581C383.016 195.533 384.817 196.059 386.657 196.117C388.958 196.296 391.26 195.778 393.304 194.622C394.029 194.197 394.661 193.609 395.158 192.896C395.43 192.494 395.618 192.033 395.71 191.544C395.757 191.342 395.779 191.134 395.778 190.925L395.783 189.524C395.788 188.17 394.976 186.821 393.337 185.789C393.19 185.699 393.043 185.611 392.888 185.53C391.086 184.634 389.121 184.187 387.138 184.223C385.155 184.259 383.205 184.777 381.432 185.738C379.778 186.772 378.948 188.117 378.951 189.471Z" fill="#4E71E0"/>
<path opacity="0.1" d="M378.951 189.471L378.946 190.828C378.942 191.043 378.964 191.257 379.009 191.466C379.179 192.14 379.481 192.766 379.893 193.303C380.306 193.841 380.819 194.276 381.4 194.581C383.016 195.533 384.817 196.059 386.657 196.117C388.958 196.296 391.26 195.778 393.304 194.622C394.029 194.197 394.661 193.609 395.158 192.896C395.43 192.494 395.618 192.033 395.71 191.544C395.757 191.342 395.779 191.134 395.778 190.925L395.783 189.524C395.788 188.17 394.976 186.821 393.337 185.789C393.19 185.699 393.043 185.611 392.888 185.53C391.086 184.634 389.121 184.187 387.138 184.223C385.155 184.259 383.205 184.777 381.432 185.738C379.778 186.772 378.948 188.117 378.951 189.471Z" fill="black"/>
<path d="M378.951 189.425C378.941 192.319 382.7 194.68 387.348 194.7C391.996 194.719 395.772 192.389 395.783 189.496C395.794 186.603 392.034 184.242 387.386 184.222C382.738 184.202 378.961 186.532 378.951 189.425Z" fill="#4E71E0"/>
<path d="M384.469 184.052L384.452 188.77C384.451 188.844 384.458 188.917 384.474 188.989C384.533 189.222 384.637 189.439 384.78 189.626C384.923 189.812 385.101 189.963 385.302 190.068C385.862 190.398 386.486 190.581 387.124 190.601C387.921 190.663 388.719 190.483 389.428 190.083C389.679 189.936 389.898 189.732 390.07 189.485C390.164 189.346 390.229 189.186 390.262 189.017C390.278 188.946 390.286 188.872 390.285 188.799L390.302 184.064C390.28 183.786 390.189 183.519 390.04 183.292C389.891 183.065 389.689 182.884 389.454 182.77C389.404 182.739 389.353 182.708 389.299 182.68C388.674 182.37 387.993 182.215 387.306 182.227C386.619 182.24 385.943 182.419 385.328 182.752C385.09 182.866 384.885 183.046 384.734 183.274C384.583 183.503 384.491 183.771 384.469 184.052Z" fill="#4E71E0"/>
<path opacity="0.1" d="M384.469 184.052L384.452 188.77C384.451 188.844 384.458 188.917 384.474 188.989C384.533 189.222 384.637 189.439 384.78 189.626C384.923 189.812 385.101 189.963 385.302 190.068C385.862 190.398 386.486 190.581 387.124 190.601C387.921 190.663 388.719 190.483 389.428 190.083C389.679 189.936 389.898 189.732 390.07 189.485C390.164 189.346 390.229 189.186 390.262 189.017C390.278 188.946 390.286 188.872 390.285 188.799L390.302 184.064C390.28 183.786 390.189 183.519 390.04 183.292C389.891 183.065 389.689 182.884 389.454 182.77C389.404 182.739 389.353 182.708 389.299 182.68C388.674 182.37 387.993 182.215 387.306 182.227C386.619 182.24 385.943 182.419 385.328 182.752C385.09 182.866 384.885 183.046 384.734 183.274C384.583 183.503 384.491 183.771 384.469 184.052Z" fill="black"/>
<path d="M384.469 184.035C384.469 185.037 385.768 185.856 387.379 185.862C388.99 185.869 390.298 185.062 390.303 184.06C390.308 183.057 389.003 182.239 387.393 182.232C385.783 182.226 384.472 183.032 384.469 184.035Z" fill="#4E71E0"/>
<path opacity="0.5" d="M386.35 184.043C386.35 184.399 386.811 184.69 387.383 184.698C387.955 184.705 388.42 184.413 388.421 184.057C388.422 183.701 387.96 183.411 387.388 183.408C386.816 183.406 386.352 183.687 386.35 184.043Z" fill="#4E71E0"/>
<path opacity="0.3" d="M386.35 184.043C386.35 184.399 386.811 184.69 387.383 184.698C387.955 184.705 388.42 184.413 388.421 184.057C388.422 183.701 387.96 183.411 387.388 183.408C386.816 183.406 386.352 183.687 386.35 184.043Z" fill="black"/>
<path d="M329.893 0.29747L256.751 46.0351C256.423 46.267 256.15 46.5794 255.954 46.947C255.758 47.3146 255.644 47.7271 255.623 48.151V81.0843C255.644 81.5075 255.758 81.9191 255.955 82.2852C256.153 82.6512 256.427 82.9611 256.757 83.1892L260.799 85.6424C261.152 85.8311 261.54 85.9283 261.933 85.9262C262.326 85.9242 262.713 85.8229 263.063 85.6304L336.205 39.8928C336.533 39.6609 336.806 39.3485 337.002 38.9809C337.199 38.6133 337.312 38.2008 337.333 37.7769V4.84143C337.312 4.4181 337.198 4.00632 337.001 3.64024C336.803 3.27416 336.528 2.96434 336.198 2.73649L332.156 0.283276C331.804 0.0945698 331.416 -0.00241844 331.023 4.58095e-05C330.63 0.00251006 330.243 0.104359 329.893 0.29747Z" fill="#4E71E0"/>
<path d="M261.935 84.9229V51.9896C261.956 51.5657 262.069 51.1531 262.265 50.7854C262.461 50.4178 262.735 50.1054 263.063 49.8738L336.205 4.13502C336.828 3.74635 337.333 4.06188 337.333 4.8414V37.7747C337.312 38.1986 337.199 38.6111 337.002 38.9787C336.806 39.3463 336.533 39.6587 336.205 39.8906L263.061 85.6282C262.44 86.018 261.935 85.7025 261.935 84.9229Z" fill="#4E71E0"/>
<path opacity="0.2" d="M263.061 85.6282C262.709 85.8166 262.323 85.9158 261.93 85.9183C261.538 85.9207 261.15 85.8264 260.796 85.6424L256.756 83.1838C256.426 82.9573 256.151 82.6488 255.953 82.2838C255.756 81.9188 255.641 81.5079 255.62 81.0854V48.1488C255.636 47.7061 255.76 47.2759 255.98 46.902L262.265 50.7876C262.059 51.1493 261.944 51.5635 261.932 51.9885V84.9208C261.935 85.6337 262.399 86.0453 263.061 85.6282Z" fill="black"/>
<path opacity="0.4" d="M337.318 4.61966C337.229 4.0039 336.766 3.78337 336.203 4.13383L263.065 49.8791C262.732 50.1052 262.457 50.4198 262.268 50.7929L255.976 46.9073C256.163 46.55 256.431 46.2496 256.754 46.0339L329.895 0.297336C330.246 0.104735 330.633 0.00344856 331.025 0.00155299C331.418 -0.000342592 331.806 0.0972028 332.158 0.286416L336.198 2.73854C336.498 2.94713 336.753 3.22298 336.947 3.54749C337.14 3.872 337.266 4.23761 337.318 4.61966Z" fill="white"/>
<path d="M252.531 73.8262C251.825 73.3687 246.517 70.1338 246.345 70.0268C246.212 69.939 246.099 69.8202 246.013 69.6791C245.928 69.5381 245.872 69.3782 245.851 69.2111C245.829 69.0439 245.842 68.8737 245.889 68.7127C245.935 68.5517 246.014 68.4039 246.12 68.28L255.721 59.6768L261.934 63.498L252.339 72.1067C252.238 72.2288 252.163 72.3729 252.117 72.5292C252.072 72.6856 252.058 72.8506 252.076 73.0134C252.094 73.1761 252.144 73.3328 252.222 73.4729C252.301 73.6131 252.406 73.7335 252.531 73.8262Z" fill="#4E71E0"/>
<path opacity="0.1" d="M252.531 73.8262C251.825 73.3687 246.517 70.1338 246.345 70.0268C246.212 69.939 246.099 69.8202 246.013 69.6791C245.928 69.5381 245.872 69.3782 245.851 69.2111C245.829 69.0439 245.842 68.8737 245.889 68.7127C245.935 68.5517 246.014 68.4039 246.12 68.28L255.721 59.6768L261.934 63.498L252.339 72.1067C252.238 72.2288 252.163 72.3729 252.117 72.5292C252.072 72.6856 252.058 72.8506 252.076 73.0134C252.094 73.1761 252.144 73.3328 252.222 73.4729C252.301 73.6131 252.406 73.7335 252.531 73.8262Z" fill="black"/>
<path d="M261.935 63.511L252.337 72.1153C252.196 72.263 252.099 72.4518 252.056 72.6587C252.012 72.8656 252.026 73.0816 252.094 73.2803C252.163 73.479 252.283 73.6518 252.441 73.7776C252.599 73.9034 252.787 73.9768 252.982 73.9888L261.934 72.8566L261.935 63.511Z" fill="#4E71E0"/>
<path d="M267.678 60.4486C267.612 60.3055 267.589 60.1436 267.612 59.9857C267.628 59.7955 267.677 59.6102 267.757 59.4398L270.571 53.5224C270.64 53.3772 270.726 53.2069 270.827 53.0093C270.904 52.8381 271.024 52.6935 271.173 52.5911L272.77 51.5933C272.789 51.5784 272.81 51.5677 272.833 51.562C272.856 51.5562 272.88 51.5555 272.903 51.5597C272.927 51.564 272.949 51.5732 272.969 51.5868C272.989 51.6005 273.006 51.6182 273.02 51.6391C273.096 51.76 273.132 51.9058 273.12 52.0518V68.3312C273.121 68.5187 273.087 68.7044 273.02 68.8771C272.974 69.0219 272.886 69.147 272.77 69.2341L271.056 70.3062C271.037 70.3212 271.015 70.3319 270.992 70.3377C270.969 70.3435 270.946 70.3443 270.923 70.3401C270.899 70.3358 270.877 70.3265 270.858 70.3128C270.838 70.2992 270.821 70.2813 270.808 70.2604C270.731 70.1391 270.695 69.993 270.707 69.8466V58.835L269.148 62.0765C269.101 62.2107 269.006 62.3193 268.886 62.3789C268.84 62.3966 268.79 62.3943 268.746 62.3725C268.702 62.3506 268.668 62.311 268.651 62.2621L267.678 60.4486Z" fill="#FAFAFA"/>
<path d="M277.731 65.4534C277.732 65.6409 277.698 65.8266 277.63 65.9993C277.584 66.1434 277.497 66.2683 277.382 66.3563L275.668 67.4284C275.649 67.4434 275.628 67.4541 275.605 67.4599C275.582 67.4657 275.558 67.4665 275.535 67.4622C275.512 67.4579 275.49 67.4487 275.47 67.435C275.451 67.4213 275.434 67.4035 275.42 67.3825C275.344 67.2616 275.308 67.1159 275.319 66.9698V63.6683C275.319 63.4809 275.353 63.2952 275.42 63.1224C275.467 62.9787 275.553 62.8543 275.668 62.7665L277.382 61.6933C277.401 61.6787 277.423 61.6683 277.446 61.6627C277.469 61.6571 277.492 61.6565 277.515 61.6609C277.538 61.6653 277.56 61.6745 277.58 61.6881C277.6 61.7017 277.617 61.7195 277.63 61.7402C277.707 61.8615 277.743 62.0077 277.731 62.154V65.4534Z" fill="#FAFAFA"/>
<path d="M282.143 62.6955C282.144 62.883 282.109 63.0687 282.042 63.2414C281.996 63.3856 281.909 63.5104 281.794 63.5984L280.08 64.6705C280.061 64.6855 280.039 64.6962 280.016 64.702C279.994 64.7078 279.97 64.7086 279.947 64.7043C279.924 64.7001 279.902 64.6908 279.882 64.6771C279.862 64.6634 279.845 64.6456 279.832 64.6247C279.755 64.5038 279.72 64.358 279.731 64.212V60.9105C279.73 60.723 279.764 60.5373 279.832 60.3646C279.878 60.2204 279.965 60.0955 280.08 60.0076L281.794 58.9354C281.813 58.9206 281.834 58.91 281.857 58.9043C281.88 58.8986 281.904 58.8978 281.927 58.9021C281.95 58.9063 281.972 58.9155 281.992 58.9291C282.011 58.9427 282.028 58.9605 282.042 58.9813C282.118 59.1026 282.154 59.2487 282.143 59.3951V62.6955Z" fill="#FAFAFA"/>
<path d="M286.554 59.9366C286.555 60.1241 286.521 60.3098 286.453 60.4825C286.407 60.6267 286.32 60.7516 286.205 60.8395L284.491 61.9117C284.472 61.9266 284.451 61.9373 284.428 61.9432C284.405 61.949 284.381 61.9498 284.358 61.9455C284.335 61.9412 284.313 61.9319 284.293 61.9183C284.273 61.9046 284.256 61.8867 284.243 61.8658C284.166 61.7445 284.131 61.5984 284.142 61.452V58.1505C284.142 57.963 284.176 57.7774 284.243 57.6046C284.289 57.4607 284.376 57.3362 284.491 57.2487L286.205 56.1755C286.224 56.1608 286.246 56.1504 286.269 56.1449C286.291 56.1393 286.315 56.1387 286.338 56.1431C286.361 56.1474 286.383 56.1567 286.403 56.1703C286.423 56.1839 286.44 56.2016 286.453 56.2224C286.53 56.3437 286.565 56.4898 286.554 56.6362V59.9366Z" fill="#FAFAFA"/>
<path d="M295.81 42.8613C295.81 43.3495 295.784 43.8373 295.731 44.3221C295.675 44.8249 295.586 45.3227 295.463 45.8113C295.326 46.3501 295.16 46.8795 294.965 47.3965C294.742 47.9872 294.491 48.5648 294.213 49.127L292.381 52.9482L295.665 50.8935C295.685 50.8786 295.706 50.868 295.729 50.8623C295.752 50.8565 295.776 50.8558 295.799 50.86C295.822 50.8643 295.844 50.8735 295.864 50.8871C295.884 50.9007 295.901 50.9185 295.914 50.9393C295.991 51.0607 296.026 51.2067 296.015 51.3531V54.0247C296.016 54.2121 295.982 54.3978 295.914 54.5706C295.869 54.7149 295.781 54.8396 295.665 54.9265L288.754 59.2477C288.735 59.2629 288.713 59.2737 288.69 59.2796C288.667 59.2855 288.643 59.2864 288.62 59.2821C288.597 59.2778 288.575 59.2685 288.555 59.2547C288.535 59.2409 288.518 59.223 288.505 59.2019C288.428 59.0812 288.392 58.9353 288.404 58.7892V56.622C288.406 56.3329 288.435 56.0447 288.49 55.7617C288.546 55.4592 288.645 55.1678 288.783 54.8981L292.698 47.0581C292.953 46.5689 293.147 46.0449 293.274 45.5001C293.348 45.1324 293.388 44.7574 293.392 44.381C293.389 44.2236 293.378 44.0665 293.359 43.9105C293.34 43.7232 293.289 43.5414 293.208 43.3744C293.139 43.2225 293.021 43.1038 292.876 43.0414C292.775 43.0162 292.671 43.0153 292.57 43.0389C292.469 43.0625 292.375 43.11 292.293 43.1779C292.051 43.327 291.847 43.5372 291.697 43.7904C291.552 44.0293 291.433 44.2858 291.343 44.5546C291.264 44.7931 291.203 45.0381 291.16 45.2872C291.121 45.5219 291.092 45.6955 291.075 45.8058C291.05 46.0177 290.981 46.2207 290.873 46.3997C290.788 46.5272 290.678 46.6339 290.553 46.7131L288.939 47.7197C288.924 47.7317 288.906 47.7402 288.888 47.7448C288.869 47.7494 288.85 47.75 288.831 47.7466C288.813 47.7431 288.795 47.7357 288.779 47.7247C288.763 47.7137 288.749 47.6994 288.738 47.6826C288.674 47.5841 288.644 47.4649 288.653 47.3452C288.666 46.5884 288.745 45.8346 288.889 45.094C289.039 44.2965 289.265 43.5179 289.563 42.7707C289.857 42.0261 290.235 41.3241 290.689 40.681C291.12 40.0624 291.66 39.5428 292.279 39.1526C292.73 38.8284 293.263 38.6664 293.804 38.6896C294.233 38.7352 294.63 38.9571 294.913 39.3098C295.24 39.7355 295.471 40.2379 295.587 40.7771C295.745 41.4584 295.819 42.159 295.81 42.8613Z" fill="#FAFAFA"/>
<path d="M300.338 51.3193C300.339 51.5068 300.305 51.6925 300.238 51.8652C300.191 52.0093 300.105 52.1342 299.99 52.2222L298.275 53.2943C298.257 53.3093 298.235 53.32 298.212 53.3258C298.189 53.3316 298.166 53.3324 298.143 53.3281C298.119 53.3239 298.097 53.3146 298.078 53.3009C298.058 53.2872 298.041 53.2694 298.027 53.2484C297.951 53.1272 297.915 52.981 297.927 52.8347V49.5364C297.926 49.349 297.96 49.1633 298.027 48.9905C298.074 48.8467 298.16 48.7221 298.275 48.6346L299.99 47.5614C300.009 47.5468 300.03 47.5364 300.053 47.5308C300.076 47.5252 300.1 47.5246 300.123 47.529C300.146 47.5334 300.168 47.5426 300.187 47.5562C300.207 47.5699 300.224 47.5876 300.238 47.6083C300.314 47.7296 300.35 47.8758 300.338 48.0221V51.3193Z" fill="#FAFAFA"/>
<path d="M304.75 48.5626C304.751 48.75 304.716 48.9357 304.649 49.1084C304.603 49.2526 304.516 49.3775 304.401 49.4655L302.687 50.5376C302.668 50.5526 302.647 50.5633 302.624 50.5691C302.601 50.5749 302.577 50.5757 302.554 50.5714C302.531 50.5671 302.509 50.5579 302.489 50.5442C302.469 50.5305 302.452 50.5127 302.439 50.4917C302.362 50.3704 302.327 50.2243 302.338 50.0779V46.7775C302.337 46.5901 302.372 46.4044 302.439 46.2316C302.485 46.0877 302.572 45.9632 302.687 45.8757L304.401 44.8025C304.42 44.7879 304.442 44.7775 304.465 44.7719C304.487 44.7663 304.511 44.7657 304.534 44.7701C304.557 44.7744 304.579 44.7837 304.599 44.7973C304.619 44.8109 304.636 44.8287 304.649 44.8494C304.726 44.9707 304.761 45.1168 304.75 45.2632V48.5626Z" fill="#FAFAFA"/>
<path d="M309.162 45.8036C309.163 45.9911 309.128 46.1768 309.061 46.3495C309.015 46.4935 308.928 46.6181 308.813 46.7054L307.099 47.7786C307.08 47.7934 307.058 47.8039 307.035 47.8096C307.013 47.8152 306.989 47.8158 306.966 47.8115C306.943 47.8071 306.921 47.7978 306.901 47.7841C306.881 47.7704 306.864 47.7526 306.851 47.7317C306.774 47.6108 306.739 47.465 306.75 47.319V44.0186C306.749 43.8311 306.784 43.6454 306.851 43.4727C306.897 43.3287 306.984 43.2039 307.099 43.1157L308.813 42.0435C308.832 42.0287 308.853 42.0181 308.876 42.0124C308.899 42.0067 308.923 42.0059 308.946 42.0102C308.969 42.0144 308.991 42.0236 309.011 42.0372C309.031 42.0508 309.048 42.0686 309.061 42.0894C309.138 42.2111 309.173 42.3575 309.162 42.5043V45.8036Z" fill="#FAFAFA"/>
<path d="M317.946 23.3524C317.965 23.3377 317.987 23.3271 318.009 23.3215C318.032 23.3158 318.056 23.3152 318.079 23.3196C318.102 23.3239 318.124 23.3332 318.144 23.3469C318.164 23.3606 318.181 23.3785 318.194 23.3994C318.271 23.52 318.307 23.666 318.295 23.8121V26.4836C318.293 26.6748 318.262 26.8644 318.204 27.0448C318.142 27.2337 318.086 27.3953 318.034 27.5296L316.45 31.5931C316.756 31.5384 317.07 31.5707 317.361 31.6868C317.653 31.803 317.911 31.9991 318.111 32.2558C318.614 33.068 318.841 34.0438 318.754 35.0169C318.794 36.7241 318.443 38.4155 317.732 39.9397C317.084 41.2859 316.093 42.403 314.878 43.1594C314.376 43.5076 313.803 43.7189 313.209 43.7751C312.774 43.8075 312.342 43.6773 311.985 43.4061C311.636 43.1189 311.37 42.73 311.219 42.2849C311.033 41.7574 310.937 41.1976 310.938 40.633C310.938 40.4805 310.967 40.3296 311.023 40.1898C311.06 40.072 311.131 39.9702 311.225 39.8993L312.874 38.8676C313.057 38.7526 313.196 38.7453 313.294 38.8458C313.389 38.9451 313.495 39.0499 313.614 39.1624C313.746 39.2805 313.904 39.3595 314.072 39.3917C314.361 39.4063 314.646 39.3134 314.879 39.1285C315.296 38.8684 315.653 38.5075 315.92 38.0739C316.199 37.617 316.343 37.0788 316.332 36.5312C316.332 35.9438 316.195 35.6014 315.92 35.5039C315.74 35.4646 315.555 35.4663 315.376 35.5088C315.196 35.5513 315.027 35.6336 314.879 35.7506L313.793 36.4297C313.774 36.4448 313.752 36.4557 313.729 36.4616C313.706 36.4675 313.683 36.4683 313.659 36.4641C313.636 36.4598 313.614 36.4505 313.594 36.4367C313.574 36.4229 313.557 36.4049 313.544 36.3838C313.467 36.2628 313.431 36.1165 313.443 35.9701V33.804C313.444 33.6126 313.475 33.4228 313.535 33.2428C313.596 33.0528 313.657 32.8803 313.718 32.7253L315.106 29.1618L311.689 31.2973C311.67 31.3122 311.648 31.323 311.625 31.3288C311.602 31.3346 311.579 31.3354 311.556 31.3311C311.533 31.3268 311.51 31.3176 311.491 31.3039C311.471 31.2902 311.454 31.2723 311.441 31.2514C311.364 31.1301 311.328 30.984 311.34 30.8376V28.1661C311.339 27.9786 311.373 27.7929 311.441 27.6202C311.486 27.4757 311.573 27.3509 311.689 27.2643L317.946 23.3524Z" fill="#FAFAFA"/>
<path d="M323.078 37.1044C323.08 37.292 323.045 37.4778 322.977 37.6503C322.932 37.7951 322.845 37.9202 322.729 38.0073L321.015 39.0805C320.996 39.0953 320.975 39.1058 320.952 39.1115C320.929 39.1171 320.905 39.1178 320.882 39.1134C320.859 39.109 320.837 39.0997 320.817 39.086C320.798 39.0723 320.781 39.0545 320.767 39.0336C320.691 38.9127 320.655 38.7669 320.667 38.6209V35.3194C320.666 35.1319 320.7 34.9462 320.767 34.7735C320.813 34.6291 320.9 34.5041 321.015 34.4165L322.729 33.3444C322.748 33.3295 322.77 33.3189 322.793 33.3132C322.816 33.3075 322.839 33.3067 322.862 33.311C322.885 33.3153 322.908 33.3245 322.927 33.3381C322.947 33.3517 322.964 33.3694 322.977 33.3902C323.054 33.5113 323.09 33.6576 323.078 33.804V37.1044Z" fill="#FAFAFA"/>
<path d="M327.489 34.3466C327.491 34.5341 327.456 34.7199 327.389 34.8924C327.343 35.0369 327.256 35.1617 327.14 35.2484L325.426 36.3216C325.407 36.3363 325.386 36.3469 325.363 36.3525C325.34 36.3581 325.316 36.3588 325.293 36.3544C325.27 36.3501 325.248 36.3408 325.228 36.327C325.209 36.3133 325.192 36.2955 325.178 36.2746C325.102 36.1538 325.066 36.008 325.078 35.8619V32.5593C325.077 32.3719 325.111 32.1862 325.178 32.0134C325.224 31.8691 325.311 31.7441 325.426 31.6564L327.14 30.5843C327.159 30.5695 327.181 30.5589 327.204 30.5532C327.227 30.5474 327.25 30.5467 327.273 30.5509C327.296 30.5552 327.319 30.5644 327.338 30.578C327.358 30.5916 327.375 30.6093 327.389 30.6302C327.466 30.7516 327.501 30.8983 327.489 31.045V34.3466Z" fill="#FAFAFA"/>
<path d="M331.901 31.5887C331.902 31.7763 331.868 31.9621 331.8 32.1346C331.754 32.2792 331.667 32.4042 331.552 32.4916L329.838 33.5637C329.819 33.5787 329.797 33.5894 329.774 33.5952C329.752 33.6011 329.728 33.6019 329.705 33.5976C329.682 33.5933 329.659 33.584 329.64 33.5704C329.62 33.5567 329.603 33.5388 329.59 33.5179C329.513 33.3966 329.477 33.2505 329.489 33.1041V29.8015C329.488 29.6141 329.522 29.4284 329.59 29.2556C329.635 29.1113 329.722 28.9866 329.838 28.8997L331.552 27.8265C331.571 27.8119 331.592 27.8014 331.615 27.7959C331.638 27.7903 331.662 27.7897 331.685 27.7941C331.708 27.7984 331.73 27.8077 331.75 27.8213C331.769 27.8349 331.786 27.8526 331.8 27.8734C331.877 27.9945 331.912 28.1408 331.901 28.2872V31.5887Z" fill="#FAFAFA"/>
<g opacity="0.3">
<g opacity="0.3">
<path opacity="0.3" d="M138.349 228.599C138.3 228.594 138.251 228.584 138.204 228.57L132.432 226.8C132.229 226.738 132.057 226.591 131.954 226.391C131.851 226.191 131.826 225.956 131.883 225.736C131.941 225.516 132.077 225.33 132.261 225.218C132.445 225.107 132.663 225.079 132.866 225.141L138.637 226.91C138.828 226.969 138.992 227.102 139.097 227.285C139.202 227.467 139.24 227.686 139.204 227.897C139.168 228.108 139.06 228.297 138.902 228.427C138.744 228.557 138.547 228.618 138.349 228.599Z" fill="black"/>
</g>
<g opacity="0.3">
<path opacity="0.3" d="M132.429 233.441C132.242 233.423 132.067 233.334 131.935 233.189C131.803 233.044 131.722 232.854 131.707 232.651C131.693 232.448 131.745 232.246 131.854 232.081C131.964 231.915 132.124 231.797 132.306 231.748L138.12 230.156C138.325 230.1 138.541 230.134 138.723 230.251C138.904 230.368 139.035 230.558 139.086 230.78C139.138 231.001 139.107 231.236 138.998 231.432C138.89 231.629 138.715 231.77 138.51 231.826L132.696 233.418C132.609 233.442 132.519 233.45 132.429 233.441Z" fill="black"/>
</g>
<g opacity="0.3">
<path opacity="0.3" d="M135.353 239.249C135.201 239.234 135.057 239.173 134.937 239.071C134.816 238.97 134.725 238.834 134.675 238.678C134.624 238.523 134.615 238.355 134.65 238.194C134.684 238.034 134.761 237.887 134.87 237.772L139.172 233.246C139.247 233.167 139.336 233.105 139.433 233.063C139.53 233.021 139.634 233 139.738 233.002C139.843 233.004 139.946 233.028 140.042 233.072C140.138 233.117 140.225 233.182 140.298 233.263C140.37 233.344 140.428 233.44 140.466 233.545C140.505 233.65 140.524 233.763 140.523 233.876C140.521 233.989 140.499 234.101 140.458 234.205C140.416 234.309 140.356 234.403 140.281 234.482L135.98 239.009C135.898 239.096 135.799 239.162 135.691 239.204C135.583 239.245 135.467 239.261 135.353 239.249Z" fill="black"/>
</g>
<g opacity="0.3">
<path opacity="0.3" d="M140.567 242.696C140.451 242.684 140.339 242.645 140.238 242.581C140.137 242.517 140.051 242.43 139.985 242.326C139.919 242.222 139.874 242.103 139.855 241.978C139.836 241.854 139.842 241.726 139.874 241.604L141.507 235.356C141.534 235.245 141.581 235.142 141.645 235.051C141.71 234.96 141.79 234.884 141.882 234.827C141.974 234.771 142.075 234.734 142.18 234.72C142.285 234.706 142.391 234.715 142.493 234.747C142.595 234.778 142.69 234.831 142.772 234.902C142.855 234.973 142.924 235.062 142.974 235.162C143.025 235.263 143.057 235.373 143.068 235.487C143.079 235.601 143.068 235.716 143.038 235.826L141.404 242.074C141.353 242.267 141.242 242.434 141.089 242.548C140.936 242.662 140.752 242.714 140.567 242.696Z" fill="black"/>
</g>
</g>
<path d="M298.077 145.74L283.667 154.751L252.019 159.704C252.019 159.704 228.889 122.127 225.349 116.219C221.809 110.31 217.675 106.529 208.085 106.536L209.9 136.515C210.202 137.483 229.331 163 241.945 176.891C246.398 181.794 249.135 183.042 256.106 180.951C273.887 175.615 295.409 159.797 297.167 155.83C299.441 150.695 297.907 145.846 298.077 145.74Z" fill="#FFA8A7"/>
<path d="M292.143 126.738C294.033 120.05 301.752 114.51 308.971 116.704C310.11 117.051 311.203 117.556 312.223 118.207C319.222 122.579 324.897 133.221 324.897 141.977C324.914 143.448 324.723 144.914 324.33 146.322C322.441 153.011 314.721 158.514 307.502 156.325C306.366 155.978 305.276 155.473 304.259 154.824C297.258 150.448 291.584 139.805 291.584 131.054C291.567 129.593 291.756 128.137 292.143 126.738Z" fill="#455A64"/>
<path d="M304.26 154.82C297.26 150.445 291.586 139.802 291.586 131.05C291.586 122.299 297.26 118.747 304.261 123.12C311.261 127.492 316.935 138.135 316.935 146.891C316.935 155.647 311.256 159.196 304.26 154.82Z" fill="#37474F"/>
<path d="M304.261 132.829C301.569 131.145 299.386 132.51 299.386 135.877C299.478 137.709 299.967 139.491 300.814 141.079C301.661 142.668 302.842 144.018 304.261 145.02C306.953 146.702 309.135 145.337 309.135 141.971C309.043 140.14 308.554 138.357 307.708 136.769C306.861 135.18 305.68 133.831 304.261 132.829Z" fill="#455A64"/>
<path d="M302.592 137.88C302.623 138.508 302.791 139.118 303.08 139.663C303.369 140.207 303.773 140.67 304.258 141.015C304.418 141.138 304.605 141.217 304.8 141.245C304.995 141.273 305.194 141.249 305.379 141.174C305.421 141.153 305.462 141.128 305.5 141.098C305.65 140.961 305.768 140.787 305.842 140.59C305.917 140.393 305.947 140.18 305.929 139.968C305.897 139.34 305.729 138.729 305.438 138.185C305.148 137.64 304.744 137.177 304.258 136.832C304.098 136.709 303.913 136.629 303.719 136.602C303.525 136.574 303.327 136.598 303.144 136.673L303.022 136.749C302.87 136.886 302.752 137.06 302.677 137.257C302.603 137.454 302.573 137.668 302.592 137.88Z" fill="#37474F"/>
<path d="M275.817 154.62C275.847 155.246 276.014 155.856 276.303 156.4C276.593 156.943 276.997 157.405 277.482 157.747C277.698 157.899 277.948 157.983 278.205 157.991C278.402 157.988 278.595 157.928 278.763 157.817L305.381 141.174C305.424 141.153 305.464 141.128 305.502 141.098C305.652 140.961 305.77 140.787 305.845 140.59C305.919 140.393 305.949 140.18 305.932 139.968C305.899 139.34 305.731 138.729 305.441 138.185C305.15 137.64 304.746 137.177 304.26 136.832C304.101 136.709 303.916 136.629 303.721 136.602C303.527 136.574 303.329 136.598 303.146 136.673L303.024 136.749L276.406 153.385C276.207 153.506 276.045 153.687 275.94 153.907C275.836 154.126 275.793 154.374 275.817 154.62Z" fill="#FAFAFA"/>
<path d="M249.69 153.271C251.581 146.582 259.3 141.043 266.519 143.237C267.658 143.583 268.751 144.088 269.77 144.738C276.77 149.11 282.444 159.753 282.444 168.509C282.461 169.98 282.271 171.445 281.878 172.853C279.989 179.543 272.268 185.044 265.049 182.855C263.913 182.507 262.823 182.003 261.806 181.354C254.806 176.978 249.132 166.335 249.132 157.583C249.115 156.123 249.303 154.669 249.69 153.271Z" fill="#455A64"/>
<path d="M261.807 181.354C254.807 176.978 249.133 166.335 249.133 157.583C249.133 148.83 254.807 145.281 261.807 149.653C268.806 154.026 274.482 164.667 274.482 173.423C274.482 182.179 268.808 185.73 261.807 181.354Z" fill="#37474F"/>
<path d="M261.807 159.362C259.115 157.679 256.933 159.043 256.933 162.409C257.024 164.241 257.513 166.023 258.36 167.612C259.207 169.2 260.388 170.55 261.807 171.552C264.499 173.235 266.682 171.871 266.682 168.505C266.59 166.673 266.101 164.891 265.254 163.302C264.407 161.714 263.226 160.364 261.807 159.362Z" fill="#455A64"/>
<path d="M260.137 164.413C260.168 165.04 260.335 165.651 260.624 166.195C260.913 166.74 261.316 167.203 261.801 167.548C261.962 167.672 262.148 167.751 262.344 167.779C262.539 167.806 262.738 167.782 262.923 167.708C262.965 167.686 263.006 167.661 263.045 167.631C263.195 167.494 263.312 167.319 263.387 167.123C263.462 166.926 263.492 166.712 263.474 166.5C263.441 165.872 263.273 165.262 262.982 164.717C262.692 164.173 262.287 163.71 261.801 163.366C261.643 163.243 261.459 163.164 261.265 163.136C261.072 163.108 260.875 163.133 260.692 163.206L260.57 163.283C260.418 163.419 260.3 163.593 260.224 163.79C260.149 163.986 260.119 164.2 260.137 164.413Z" fill="#37474F"/>
<path d="M256.104 166.938C256.134 167.565 256.301 168.174 256.591 168.718C256.88 169.261 257.284 169.723 257.769 170.066C257.986 170.217 258.236 170.3 258.493 170.308C258.69 170.306 258.883 170.246 259.051 170.135L262.926 167.708C262.968 167.686 263.009 167.661 263.048 167.631C263.198 167.494 263.315 167.319 263.39 167.123C263.465 166.926 263.495 166.712 263.477 166.5C263.444 165.872 263.276 165.262 262.985 164.717C262.695 164.173 262.29 163.71 261.804 163.366C261.646 163.243 261.462 163.164 261.268 163.136C261.075 163.108 260.878 163.133 260.695 163.206L260.573 163.283L256.699 165.703C256.498 165.823 256.335 166.004 256.23 166.224C256.124 166.443 256.08 166.692 256.104 166.938Z" fill="#FAFAFA"/>
<path d="M256.104 166.926C256.135 167.553 256.302 168.164 256.592 168.708C256.881 169.253 257.284 169.716 257.77 170.06C257.93 170.184 258.116 170.263 258.312 170.291C258.507 170.319 258.706 170.294 258.891 170.22C258.933 170.198 258.974 170.173 259.013 170.143C259.163 170.006 259.28 169.832 259.354 169.635C259.429 169.438 259.459 169.225 259.441 169.013C259.409 168.386 259.241 167.775 258.95 167.231C258.66 166.686 258.255 166.223 257.77 165.879C257.61 165.755 257.425 165.676 257.231 165.648C257.037 165.62 256.839 165.644 256.655 165.718L256.533 165.795C256.382 165.931 256.264 166.106 256.189 166.303C256.114 166.5 256.085 166.714 256.104 166.926Z" fill="#E0E0E0"/>
<path d="M288.847 163.552C294.964 158.489 300.834 158.53 299.774 146.163C298.876 140.657 297.63 140.315 292.699 138.243C290.539 137.336 287.686 136.652 285.934 138.789C285.744 139.056 285.532 139.305 285.301 139.533C284.795 139.886 284.213 140.09 283.611 140.124C282.461 140.188 281.368 140.687 280.523 141.534C279.952 142.241 279.73 143.216 279.168 143.935C278.623 144.488 278.041 144.995 277.425 145.452C276.98 145.867 276.622 146.38 276.373 146.956C276.124 147.532 275.99 148.158 275.98 148.794C276.022 149.519 276.21 150.226 276.532 150.865C276.853 151.504 277.299 152.058 277.839 152.491L280.919 150.565C282.183 149.624 284.785 152.976 283.667 154.752C281.895 157.563 288.847 163.552 288.847 163.552Z" fill="#FFA8A7"/>
<path d="M217.561 188.402C219.517 179.833 220.082 158.446 220.082 158.446L162.827 160.302C162.827 160.302 165.219 170.657 165.952 173.813C166.464 176.857 166.738 179.943 166.771 183.037C166.771 183.037 172.326 194.18 188.797 196.148C198.92 197.193 209.069 194.459 217.561 188.402Z" fill="#FFA8A7"/>
<path d="M220.082 158.446C220.148 159.124 219.752 165.602 219.752 165.602C212.429 172.272 188.943 175.646 164.32 166.769L159.096 144.941C159.096 144.941 176.827 136.515 164.853 108.241L177.723 107.16L200.578 106.536H208.085C214.249 113.02 219.459 120.487 223.537 128.678C226.533 134.728 230.349 143.587 220.082 158.446Z" fill="#455A64"/>
<path d="M187.717 158.641C177.405 155.792 174.811 148.804 174.082 143.683C174.082 143.683 172.134 158.641 186.88 162.125C202.424 165.799 208.817 152.471 208.817 152.471C208.817 152.471 200.161 162.08 187.717 158.641Z" fill="#37474F"/>
<path d="M99.914 325.089C96.9084 327.481 89.9191 328.054 83.7555 324.933C77.592 321.812 75.0481 312.97 76.1935 306.058C77.586 297.684 81.4073 293.103 82.3823 288.068C83.3573 283.033 82.347 276.038 83.8483 271.557C84.4577 269.83 85.4034 268.264 86.6213 266.967C87.8391 265.671 89.3006 264.673 90.9062 264.043C91.9313 263.616 93.0329 263.448 94.127 263.553C95.2211 263.657 96.2786 264.031 97.2189 264.645L99.0338 265.808L99.914 325.089Z" fill="#263238"/>
<path d="M107.127 293.156L102.349 308.674C102.349 308.674 105.368 319.751 103.67 322.692C101.156 327.046 96.7337 327.823 89.2806 325.365C80.7608 322.551 78.7473 314.205 79.1677 307.715C79.7666 298.474 87.6603 291.514 86.7579 282.626C86.3163 278.284 86.8678 273.375 89.077 269.634C91.5482 265.433 95.6075 264.645 99.814 266.021C103.419 267.198 106.587 269.653 109.637 271.96C110.518 272.56 111.314 273.295 112 274.144C112.547 274.933 112.957 275.824 113.21 276.773C113.763 278.681 113.926 280.696 113.688 282.679C113.466 284.535 112.377 285.615 111.357 287.08L107.127 293.156Z" fill="#37474F"/>
<path d="M127.727 285.803C127.43 285.68 112.831 275.571 111.254 274.812C109.677 274.053 105.817 272.963 102.071 282.34C99.4025 289.02 103.244 291.485 103.244 291.485L120.328 302.512L127.727 285.803Z" fill="#FFA8A7"/>
<path d="M102.348 308.674C99.2585 307.005 95.8394 306.178 92.3875 306.265C92.1285 306.293 91.8671 306.252 91.6266 306.143C91.3861 306.035 91.1743 305.864 91.01 305.646C90.8457 305.427 90.7342 305.168 90.6855 304.891C90.6368 304.614 90.6524 304.328 90.731 304.059L90.741 304.028C90.8369 303.709 91.0178 303.429 91.2608 303.222C91.5038 303.016 91.7981 302.892 92.1062 302.866C94.4172 302.67 100.025 302.6 103.748 305.923C104.721 308.13 102.348 308.674 102.348 308.674Z" fill="#4E71E0"/>
<path d="M104.099 301.583C101.093 299.744 97.7176 298.727 94.2662 298.619C94.0064 298.633 93.7475 298.577 93.5127 298.456C93.2779 298.335 93.0746 298.152 92.921 297.925C92.7674 297.697 92.6684 297.432 92.6329 297.153C92.5974 296.874 92.6265 296.59 92.7175 296.326L92.7286 296.295C92.8398 295.982 93.0339 295.712 93.2866 295.519C93.5393 295.326 93.8391 295.219 94.1482 295.21C96.4673 295.145 102.069 295.388 105.628 298.909C106.494 301.173 104.099 301.583 104.099 301.583Z" fill="#4E71E0"/>
<path opacity="0.3" d="M102.348 308.674C99.2585 307.005 95.8394 306.178 92.3875 306.265C92.1285 306.293 91.8671 306.252 91.6266 306.143C91.3861 306.035 91.1743 305.864 91.01 305.646C90.8457 305.427 90.7342 305.168 90.6855 304.891C90.6368 304.614 90.6524 304.328 90.731 304.059L90.741 304.028C90.8369 303.709 91.0178 303.429 91.2608 303.222C91.5038 303.016 91.7981 302.892 92.1062 302.866C94.4172 302.67 100.025 302.6 103.748 305.923C104.721 308.13 102.348 308.674 102.348 308.674Z" fill="black"/>
<path opacity="0.3" d="M104.099 301.583C101.093 299.744 97.7176 298.727 94.2662 298.619C94.0064 298.633 93.7475 298.577 93.5127 298.456C93.2779 298.335 93.0746 298.152 92.921 297.925C92.7674 297.697 92.6684 297.432 92.6329 297.153C92.5974 296.874 92.6265 296.59 92.7175 296.326L92.7286 296.295C92.8398 295.982 93.0339 295.712 93.2866 295.519C93.5393 295.326 93.8391 295.219 94.1482 295.21C96.4673 295.145 102.069 295.388 105.628 298.909C106.494 301.173 104.099 301.583 104.099 301.583Z" fill="black"/>
<path d="M252.893 326.767L271.848 318.621C271.531 313.333 270.323 306.272 271.575 292.376L250.067 287.941V311.264L252.893 326.767Z" fill="#FFA8A7"/>
<path d="M307 344.8C307.508 346.453 307.415 348.254 306.74 349.836C306.091 351.309 298.983 355.649 289.398 354.949C282.289 354.409 275.443 351.819 269.571 347.446C265.916 344.826 262.11 344.336 257.363 344.041C252.616 343.746 246.381 341.184 245.34 338.78C244.298 336.376 245.497 332.235 245.497 332.235L307 344.8Z" fill="#263238"/>
<path d="M268.312 312.399C268.562 312.341 268.816 312.285 269.07 312.23C269.482 312.108 269.914 312.082 270.336 312.156C270.8 312.311 271.211 312.612 271.518 313.02C272.457 314.32 273.277 315.714 273.967 317.185C275.977 320.734 280.195 323.673 284.803 326.355C287.935 328.179 291.004 329.592 294.238 331.168C297.536 332.774 301.914 333.755 304.496 335.644C308.257 338.39 308.743 345.289 304.457 348.014C300.76 350.363 291.03 352.911 280.826 349.78C275.267 348.075 269.096 341.644 261.801 341.026C257.163 340.634 248.391 339.222 245.4 335.406C244.296 333.715 245.77 328.35 246.98 323.724C248.301 318.67 248.795 309.757 250.337 310.203C250.337 310.203 249.918 311.464 250.52 312.138C251.092 312.778 253.255 314.164 253.879 314.74C254.954 315.89 255.825 317.246 256.446 318.738C256.697 319.41 257.165 319.96 257.762 320.285C258.545 320.603 259.13 320.067 259.815 319.727C260.685 319.297 261.669 319.22 262.587 319.509C262.497 318.508 262.334 317.516 262.098 316.543C261.992 316.237 261.968 315.906 262.029 315.586C262.151 315.282 262.359 315.029 262.624 314.863C264.341 313.623 266.278 312.783 268.312 312.399Z" fill="#37474F"/>
<path d="M280.469 323.624C280.469 323.624 279.802 321.696 277.041 321.14C274.929 320.714 271.201 322.399 268.883 324.467C268.663 324.66 268.49 324.909 268.379 325.191C268.269 325.474 268.224 325.781 268.249 326.087C268.273 326.393 268.367 326.687 268.521 326.945C268.675 327.202 268.885 327.415 269.133 327.564C269.445 327.75 269.802 327.826 270.156 327.784C270.51 327.741 270.843 327.581 271.11 327.326C273.665 324.819 277.023 323.491 280.469 323.624Z" fill="#4E71E0"/>
<path d="M287.013 327.591C286.553 326.889 285.944 326.316 285.238 325.922C284.531 325.528 283.747 325.323 282.952 325.326C282.952 325.326 277.439 325.498 274.027 328.942C273.818 329.131 273.654 329.371 273.549 329.643C273.444 329.915 273.401 330.211 273.424 330.505C273.446 330.799 273.534 331.082 273.68 331.331C273.826 331.581 274.025 331.788 274.26 331.937C274.561 332.116 274.906 332.189 275.247 332.146C275.589 332.103 275.909 331.946 276.164 331.696C277.572 330.175 279.278 329.016 281.156 328.306C283.034 327.595 285.036 327.351 287.013 327.591Z" fill="#4E71E0"/>
<path d="M294.237 331.168C293.711 330.519 293.062 330 292.335 329.647C291.607 329.294 290.817 329.115 290.02 329.122C290.02 329.122 284.884 329.329 281.472 332.774C281.263 332.963 281.098 333.203 280.993 333.475C280.888 333.747 280.845 334.043 280.868 334.337C280.891 334.631 280.979 334.915 281.124 335.164C281.27 335.413 281.469 335.621 281.705 335.769C282.006 335.948 282.351 336.021 282.692 335.978C283.033 335.935 283.353 335.779 283.609 335.53C285.141 334.043 288.008 330.668 294.237 331.168Z" fill="#4E71E0"/>
<path opacity="0.3" d="M280.469 323.624C280.469 323.624 279.802 321.696 277.041 321.14C274.929 320.714 271.201 322.399 268.883 324.467C268.663 324.66 268.49 324.909 268.379 325.191C268.269 325.474 268.224 325.781 268.249 326.087C268.273 326.393 268.367 326.687 268.521 326.945C268.675 327.202 268.885 327.415 269.133 327.564C269.445 327.75 269.802 327.826 270.156 327.784C270.51 327.741 270.843 327.581 271.11 327.326C273.665 324.819 277.023 323.491 280.469 323.624Z" fill="black"/>
<path opacity="0.3" d="M287.013 327.591C286.553 326.889 285.944 326.316 285.238 325.922C284.531 325.528 283.747 325.323 282.952 325.326C282.952 325.326 277.439 325.498 274.027 328.942C273.818 329.131 273.654 329.371 273.549 329.643C273.444 329.915 273.401 330.211 273.424 330.505C273.446 330.799 273.534 331.082 273.68 331.331C273.826 331.581 274.025 331.788 274.26 331.937C274.561 332.116 274.906 332.189 275.247 332.146C275.589 332.103 275.909 331.946 276.164 331.696C277.572 330.175 279.278 329.016 281.156 328.306C283.034 327.595 285.036 327.351 287.013 327.591Z" fill="black"/>
<path opacity="0.3" d="M294.237 331.168C293.711 330.519 293.062 330 292.335 329.647C291.607 329.294 290.817 329.115 290.02 329.122C290.02 329.122 284.884 329.329 281.472 332.774C281.263 332.963 281.098 333.203 280.993 333.475C280.888 333.747 280.845 334.043 280.868 334.337C280.891 334.631 280.979 334.915 281.124 335.164C281.27 335.413 281.469 335.621 281.705 335.769C282.006 335.948 282.351 336.021 282.692 335.978C283.033 335.935 283.353 335.779 283.609 335.53C285.141 334.043 288.008 330.668 294.237 331.168Z" fill="black"/>
<path d="M265.853 209.654C251.434 206.149 217.004 198.356 217.004 198.356L217.562 188.402C205.104 195.39 178.858 193.412 166.767 183.04L164.852 193.595C160.264 199.543 156.293 206.017 153.009 212.902C150.245 218.825 145.623 228.071 150.222 249.61C152.923 262.261 156.527 295.574 156.527 295.574L121.276 281.496C121.276 281.496 118.223 282.052 115.685 289.209C114.18 293.452 113.622 297.523 115.206 299.631C128.112 310.658 149.022 328.695 170.157 338.805C184.264 344.659 191.775 331.802 192.466 327.045C195.112 308.813 198.175 250.232 198.175 250.232L245.273 248.602C243.717 258.275 250.07 296.07 250.07 296.07C250.07 296.07 261.678 301.518 271.299 295.941C271.299 295.941 277.733 252.439 278.347 237.936C279.034 221.755 279.803 213.045 265.853 209.654Z" fill="#4E71E0"/>
<path opacity="0.15" d="M245.274 248.599C245.274 245.99 246.876 236.868 252.331 232.016C252.331 232.016 244.854 233.466 241.43 248.733L245.274 248.599Z" fill="black"/>
<path opacity="0.15" d="M156.532 295.572C156.532 295.572 157.493 309.958 160.08 316.961C160.08 316.961 153.712 304.514 152.984 294.155L156.532 295.572Z" fill="black"/>
<path opacity="0.15" d="M216.996 198.355L217.552 188.406C205.094 195.384 178.87 193.411 166.771 183.044H166.763L164.853 193.598V193.603C164.947 193.712 172.712 202.392 192.897 203.525C213.207 204.663 216.996 198.355 216.996 198.355Z" fill="black"/>
<path opacity="0.15" d="M198.175 250.229C198.008 244.825 196.827 239.513 194.704 234.618C192.581 229.723 189.561 225.346 185.827 221.755C185.827 221.755 196.68 227.168 200.305 244.49C200.305 244.49 208.394 240.424 212.584 228.215C212.584 228.215 211.295 240.424 204.802 247.359L224.379 249.324L198.175 250.229Z" fill="black"/>
<path d="M191.828 29.4129C183.471 29.4141 175.456 33.0097 169.547 39.4089C163.638 45.8082 160.318 54.4869 160.318 63.5363C160.319 72.5863 163.639 81.2655 169.549 87.6648C175.459 94.0641 183.474 97.6593 191.832 97.6596C200.19 97.6596 208.205 94.0645 214.115 87.6651C220.025 81.2658 223.345 72.5863 223.345 63.5363C223.345 59.0548 222.53 54.6171 220.946 50.4768C219.362 46.3365 217.04 42.5746 214.114 39.4059C211.187 36.2372 207.713 33.7237 203.889 32.0091C200.065 30.2945 195.967 29.4123 191.828 29.4129Z" fill="#263238"/>
<path d="M158.962 50.2013C160.099 50.1459 161.24 50.2154 162.364 50.4088C162.753 50.4307 163.121 50.6072 163.397 50.9044C163.55 51.1544 163.638 51.4445 163.651 51.744C163.907 53.6381 163.745 55.571 163.178 57.3841C162.731 58.6462 161.345 59.2936 160.468 60.214C157.06 63.7885 156.79 69.719 158.13 74.6483C159.47 79.5777 162.12 83.9557 163.912 88.7136C165.727 93.5425 166.578 99.2088 164.114 103.955C163.157 105.796 161.412 107.186 161.619 109.446C161.865 112.122 164.018 114.687 164.947 117.122C165.973 119.979 166.33 123.068 165.987 126.111C165.708 129.885 164.395 133.483 162.216 136.444C160.549 138.539 158.397 140.117 155.981 141.016C153.565 141.914 150.972 142.101 148.467 141.557C147.415 141.359 146.42 140.9 145.559 140.217C144.07 138.932 143.483 136.82 142.678 134.952C140.079 128.921 134.602 124.529 132.942 118.122C131.187 111.343 134.195 104.203 137.883 98.4064C139.607 95.6977 141.533 93.037 142.375 89.8764C143.514 85.6054 142.52 81.0603 142.26 76.6233C142.006 72.2826 142.465 67.9276 143.615 63.7601C144.448 60.7468 145.732 57.2749 147.898 55.1165C150.944 52.1324 154.857 50.3939 158.962 50.2013Z" fill="#263238"/>
<path d="M211.58 45.0307C215.032 47.2601 219.276 56.7127 218.778 76.4738C218.356 93.2237 213.327 97.3397 210.803 98.521C208.28 99.7023 203.429 98.9577 198.71 98.0843L198.673 108.137C198.673 108.137 205.166 116.373 204.738 120.981C204.309 125.589 195.294 126.639 189.21 122.108C183.127 117.577 178.013 108.776 178.013 108.776L178.207 85.661C178.207 85.661 175.418 88.5706 170.724 84.0889C166.849 80.39 165.563 74.1756 168.606 70.8577C171.65 67.5398 177.248 68.4711 179.378 73.2312C179.378 73.2312 186.906 73.5587 196.955 67.6435C200.863 65.3844 204.223 62.1595 206.764 58.2306C209.305 54.3016 210.955 49.7793 211.58 45.0307Z" fill="#FFA8A7"/>
<path d="M201.522 72.1852C201.524 72.5985 201.414 73.0033 201.205 73.3493C200.996 73.6953 200.698 73.9672 200.348 74.1312C199.998 74.2952 199.61 74.3441 199.235 74.2718C198.859 74.1995 198.511 74.0092 198.234 73.7245C197.958 73.4399 197.764 73.0734 197.678 72.6708C197.592 72.2681 197.618 71.847 197.751 71.4597C197.884 71.0724 198.12 70.7362 198.428 70.4927C198.736 70.2492 199.104 70.1092 199.485 70.0901C199.746 70.0817 200.007 70.1293 200.25 70.2303C200.494 70.3312 200.718 70.4835 200.907 70.6782C201.096 70.873 201.248 71.1065 201.354 71.3651C201.459 71.6238 201.517 71.9025 201.522 72.1852Z" fill="#263238"/>
<g style="mix-blend-mode:multiply" opacity="0.5">
<g style="mix-blend-mode:multiply" opacity="0.5">
<path d="M201.987 86.3871L206.497 87.9669C206.415 88.2944 206.272 88.6007 206.078 88.8673C205.884 89.1338 205.642 89.3553 205.367 89.5184C205.092 89.6815 204.79 89.7828 204.478 89.8164C204.166 89.8499 203.851 89.815 203.552 89.7137C202.944 89.4863 202.442 89.0125 202.15 88.3922C201.858 87.7718 201.8 87.0531 201.987 86.3871Z" fill="#F28F8F"/>
</g>
</g>
<path d="M217.497 65.7886L213.572 62.8168C213.738 62.5303 213.956 62.2835 214.213 62.0913C214.47 61.8992 214.76 61.7657 215.066 61.6991C215.373 61.6325 215.688 61.6341 215.994 61.7039C216.299 61.7737 216.588 61.9101 216.844 62.105C217.367 62.5123 217.726 63.1209 217.847 63.806C217.969 64.491 217.843 65.2005 217.497 65.7886Z" fill="#263238"/>
<path d="M216.57 70.73C216.572 71.1429 216.462 71.5474 216.253 71.893C216.044 72.2386 215.746 72.5102 215.396 72.674C215.046 72.8378 214.659 72.8865 214.284 72.8142C213.908 72.7419 213.561 72.5518 213.284 72.2673C213.008 71.9829 212.814 71.6167 212.729 71.2144C212.643 70.812 212.668 70.3912 212.801 70.0042C212.934 69.6172 213.169 69.2811 213.477 69.0376C213.785 68.7942 214.153 68.6541 214.534 68.6348C214.795 68.6263 215.055 68.6738 215.299 68.7747C215.543 68.8756 215.766 69.0278 215.955 69.2226C216.145 69.4174 216.297 69.6509 216.402 69.9097C216.508 70.1684 216.565 70.4472 216.57 70.73Z" fill="#263238"/>
<g style="mix-blend-mode:multiply" opacity="0.5">
<g style="mix-blend-mode:multiply" opacity="0.5">
<path d="M207.397 69.4821L207.658 82.1641L213.829 80.1247L207.397 69.4821Z" fill="#F28F8F"/>
</g>
</g>
<g style="mix-blend-mode:multiply" opacity="0.5">
<g style="mix-blend-mode:multiply" opacity="0.5">
<path d="M198.71 98.0789C193.738 97.3507 183.516 94.1212 181.938 89.7312C182.568 91.9521 183.813 93.9099 185.504 95.3396C188.551 98.1902 198.698 101.433 198.698 101.433L198.71 98.0789Z" fill="#F28F8F"/>
</g>
</g>
<path d="M164.856 108.241C155.094 108.989 151.068 110.337 145.634 123.39C140.747 135.134 129.049 165.497 126.122 172.272C123.195 179.048 122.647 181.763 125.089 188.844C127.081 194.619 143.576 227.799 145.378 232.635C147.18 237.472 147.981 242.361 151.054 247.998C154.128 253.635 158.989 259.134 162.83 260.434C168.527 262.368 175.899 259.678 176.156 255.958C176.413 252.238 167.798 246.016 165.469 237.754C167.017 238.855 168.648 239.815 170.345 240.623C172.664 241.649 175.235 241.426 176.006 240.005C176.777 238.583 174.462 237.712 172.403 235.502C171.174 234.181 168.995 231.218 166.213 228.597C164.333 226.825 161.239 226.304 159.855 224.36C159.101 223.323 155.715 214.333 153.171 206.327C150.021 196.411 145.878 183.202 145.878 183.202L162.832 144.939C162.832 144.939 176.158 130.623 164.856 108.241Z" fill="#FFA8A7"/>
<path d="M145.375 232.635C145.375 232.635 149.283 224.087 159.85 224.362L157.059 217.633C157.059 217.633 146.742 218.424 142.391 225.981L145.375 232.635Z" fill="#37474F"/>
<path d="M144.238 225.373L146.536 228.86C146.701 229.112 146.911 229.326 147.154 229.489C147.397 229.652 147.668 229.76 147.95 229.807C148.232 229.855 148.52 229.84 148.797 229.764C149.074 229.688 149.334 229.552 149.561 229.365L153.617 226.062C154.086 225.673 154.4 225.107 154.497 224.477C154.594 223.847 154.466 223.2 154.14 222.669L152.032 219.304C151.873 219.047 151.668 218.827 151.429 218.658C151.189 218.488 150.921 218.373 150.64 218.319C150.358 218.265 150.069 218.273 149.791 218.343C149.512 218.412 149.25 218.542 149.019 218.724L144.743 222.053C144.27 222.422 143.952 222.978 143.858 223.6C143.763 224.222 143.9 224.86 144.238 225.373Z" fill="#263238"/>
<path d="M143.48 225.288L145.779 228.776C145.944 229.028 146.154 229.242 146.397 229.405C146.64 229.568 146.91 229.676 147.193 229.723C147.475 229.77 147.763 229.756 148.04 229.68C148.317 229.604 148.576 229.468 148.804 229.281L152.86 225.978C153.328 225.589 153.642 225.022 153.739 224.392C153.836 223.762 153.708 223.115 153.382 222.583L151.274 219.22C151.116 218.962 150.911 218.742 150.671 218.572C150.432 218.402 150.164 218.287 149.882 218.233C149.601 218.179 149.312 218.187 149.033 218.257C148.755 218.327 148.492 218.457 148.262 218.64L143.984 221.968C143.512 222.337 143.194 222.893 143.1 223.515C143.005 224.137 143.142 224.774 143.48 225.288Z" fill="#455A64"/>
<path d="M152.936 224.139C152.917 224.359 152.855 224.572 152.757 224.765C152.658 224.958 152.523 225.126 152.361 225.26L148.307 228.564C148.168 228.68 148.008 228.763 147.838 228.81C147.668 228.857 147.491 228.867 147.318 228.838C147.144 228.809 146.978 228.743 146.829 228.642C146.68 228.542 146.551 228.411 146.45 228.255L144.151 224.769C143.94 224.448 143.855 224.049 143.914 223.661C143.974 223.272 144.174 222.924 144.469 222.695L148.746 219.365C148.887 219.253 149.048 219.173 149.218 219.131C149.389 219.088 149.565 219.083 149.738 219.116C149.91 219.15 150.074 219.22 150.221 219.324C150.367 219.428 150.493 219.563 150.59 219.721L152.697 223.084C152.888 223.394 152.973 223.767 152.936 224.137V224.139Z" fill="#4E71E0"/>
</svg>
