<svg width="166" height="166" viewBox="0 0 166 166" fill="none" xmlns="http://www.w3.org/2000/svg">
<path d="M131.417 76.0834H89.9167V34.5834C89.9167 32.749 89.188 30.9897 87.8909 29.6926C86.5938 28.3955 84.8345 27.6667 83.0001 27.6667C81.1657 27.6667 79.4064 28.3955 78.1093 29.6926C76.8121 30.9897 76.0834 32.749 76.0834 34.5834V76.0834H34.5834C32.749 76.0834 30.9897 76.8121 29.6926 78.1093C28.3955 79.4064 27.6667 81.1657 27.6667 83.0001C27.6667 84.8345 28.3955 86.5938 29.6926 87.8909C30.9897 89.188 32.749 89.9167 34.5834 89.9167H76.0834V131.417C76.0834 133.251 76.8121 135.01 78.1093 136.308C79.4064 137.605 81.1657 138.333 83.0001 138.333C84.8345 138.333 86.5938 137.605 87.8909 136.308C89.188 135.01 89.9167 133.251 89.9167 131.417V89.9167H131.417C133.251 89.9167 135.01 89.188 136.308 87.8909C137.605 86.5938 138.333 84.8345 138.333 83.0001C138.333 81.1657 137.605 79.4064 136.308 78.1093C135.01 76.8121 133.251 76.0834 131.417 76.0834Z" fill="#BABABA"/>
</svg>
